<svg xmlns="http://www.w3.org/2000/svg" xmlns:xlink="http://www.w3.org/1999/xlink" xml:space="preserve" style="shape-rendering:geometricPrecision;text-rendering:geometricPrecision;image-rendering:optimizeQuality;" viewBox="0 0 6.82666 8.533325000000001" x="0px" y="0px" fill-rule="evenodd" clip-rule="evenodd"><defs><style type="text/css">
   
    .fil1 {fill:none}
    .fil0 {fill:black;fill-rule:nonzero}
   
  </style></defs><g><path class="fil0" d="M1.53646 2.82172l3.75374 0c0.114874,0 0.219252,0.046937 0.294862,0.122551 0.0756181,0.0756181 0.122551,0.179988 0.122551,0.294862l0 2.10041 0 0.08 -0.08 0 -4.42857 0 -0.08 0 0 -0.08 0 -2.10041c0,-0.114874 0.0469331,-0.219244 0.122551,-0.294862 0.0756102,-0.0756142 0.179988,-0.122551 0.294862,-0.122551zm3.75374 0.16l-3.75374 0c-0.0707047,0 -0.135047,0.0289882 -0.181736,0.0756772 -0.0466929,0.0466929 -0.0756772,0.111031 -0.0756772,0.181736l0 2.02041 4.26857 0 0 -2.02041c0,-0.0707047 -0.0289843,-0.135043 -0.0756772,-0.181736 -0.046689,-0.046689 -0.111031,-0.0756772 -0.181736,-0.0756772z"/><path class="fil0" d="M5.69387 3.51337c0.0245039,-0.0365866 0.0147087,-0.086122 -0.021878,-0.110626 -0.0365866,-0.0245039 -0.086122,-0.0147087 -0.110626,0.021878 -0.00178346,0.00266535 -0.614563,0.939524 -1.35473,-0.00468898 -0.0270945,-0.034689 -0.077185,-0.0408425 -0.111874,-0.013748 -0.034689,0.0270945 -0.0408425,0.077185 -0.013748,0.111874 0.877453,1.11934 1.61072,-0.0015 1.61286,-0.00468898z"/><path class="fil0" d="M4.21013 3.51337c0.0245039,-0.0365866 0.0147087,-0.086122 -0.021878,-0.110626 -0.0365866,-0.0245039 -0.086122,-0.0147087 -0.110626,0.021878 -0.00178346,0.00266535 -0.614563,0.939524 -1.35473,-0.00468898 -0.0270945,-0.034689 -0.077185,-0.0408425 -0.111874,-0.013748 -0.034689,0.0270945 -0.0408425,0.077185 -0.013748,0.111874 0.877453,1.11934 1.61072,-0.0015 1.61286,-0.00468898z"/><path class="fil0" d="M2.72664 3.51306c0.0243346,-0.0367598 0.0142598,-0.0862913 -0.0225,-0.110626 -0.0367598,-0.0243346 -0.0862913,-0.0142598 -0.110626,0.0225 -0.00172047,0.00259843 -0.591953,0.916803 -1.33166,-0.0268189 -0.0270945,-0.034689 -0.077185,-0.0408425 -0.111874,-0.013748 -0.034689,0.0270945 -0.0408425,0.077185 -0.013748,0.111874 0.877909,1.11993 1.58833,0.0199449 1.59041,0.0168189z"/><path class="fil0" d="M1.81061 4.33589c0.0709961,0 0.135283,0.0287874 0.181823,0.0753189 0.0465315,0.0465394 0.0753189,0.110827 0.0753189,0.181823 0,0.071 -0.0287874,0.135291 -0.0753189,0.181823 -0.0465394,0.0465315 -0.110827,0.0753189 -0.181823,0.0753189 -0.071,0 -0.135291,-0.0287874 -0.181823,-0.0753189 -0.0465315,-0.0465315 -0.0753189,-0.110823 -0.0753189,-0.181823 0,-0.0709961 0.0287874,-0.135283 0.0753189,-0.181823 0.0465315,-0.0465315 0.110823,-0.0753189 0.181823,-0.0753189zm0.0686969 0.188445c-0.0175748,-0.0175709 -0.0418622,-0.0284449 -0.0686969,-0.0284449 -0.0268268,0 -0.051126,0.010874 -0.0686969,0.0284449 -0.0175709,0.0175748 -0.0284449,0.0418622 -0.0284449,0.0686969 0,0.0268268 0.010874,0.051126 0.0284449,0.0686969 0.0175709,0.0175709 0.0418701,0.0284449 0.0686969,0.0284449 0.0268346,0 0.051122,-0.010874 0.0686969,-0.0284449 0.0175709,-0.0175709 0.0284449,-0.0418701 0.0284449,-0.0686969 0,-0.0268346 -0.010874,-0.051122 -0.0284449,-0.0686969z"/><path class="fil0" d="M3.41333 4.33589c0.071,0 0.135291,0.0287874 0.181823,0.0753189 0.0465315,0.0465394 0.0753189,0.110827 0.0753189,0.181823 0,0.071 -0.0287874,0.135291 -0.0753189,0.181823 -0.0465315,0.0465315 -0.110823,0.0753189 -0.181823,0.0753189 -0.071,0 -0.135291,-0.0287874 -0.181823,-0.0753189 -0.0465315,-0.0465315 -0.0753189,-0.110823 -0.0753189,-0.181823 0,-0.0709961 0.0287874,-0.135283 0.0753189,-0.181823 0.0465315,-0.0465315 0.110823,-0.0753189 0.181823,-0.0753189zm0.0686969 0.188445c-0.0175709,-0.0175709 -0.0418701,-0.0284449 -0.0686969,-0.0284449 -0.0268268,0 -0.051126,0.010874 -0.0686969,0.0284449 -0.0175709,0.0175748 -0.0284449,0.0418622 -0.0284449,0.0686969 0,0.0268268 0.010874,0.051126 0.0284449,0.0686969 0.0175709,0.0175709 0.0418701,0.0284449 0.0686969,0.0284449 0.0268268,0 0.051126,-0.010874 0.0686969,-0.0284449 0.0175709,-0.0175709 0.0284449,-0.0418701 0.0284449,-0.0686969 0,-0.0268346 -0.010874,-0.051122 -0.0284449,-0.0686969z"/><path class="fil0" d="M5.01605 4.33589c0.071,0 0.135291,0.0287874 0.181823,0.0753189 0.0465315,0.0465394 0.0753189,0.110827 0.0753189,0.181823 0,0.071 -0.0287874,0.135291 -0.0753189,0.181823 -0.0465315,0.0465315 -0.110823,0.0753189 -0.181823,0.0753189 -0.0709961,0 -0.135283,-0.0287874 -0.181823,-0.0753189 -0.0465315,-0.0465315 -0.0753189,-0.110823 -0.0753189,-0.181823 0,-0.0709961 0.0287874,-0.135283 0.0753189,-0.181823 0.0465394,-0.0465315 0.110827,-0.0753189 0.181823,-0.0753189zm0.0686969 0.188445c-0.0175709,-0.0175709 -0.0418701,-0.0284449 -0.0686969,-0.0284449 -0.0268346,0 -0.051122,0.010874 -0.0686969,0.0284449 -0.0175709,0.0175748 -0.0284449,0.0418622 -0.0284449,0.0686969 0,0.0268268 0.010874,0.051126 0.0284449,0.0686969 0.0175748,0.0175709 0.0418622,0.0284449 0.0686969,0.0284449 0.0268268,0 0.051126,-0.010874 0.0686969,-0.0284449 0.0175709,-0.0175709 0.0284449,-0.0418701 0.0284449,-0.0686969 0,-0.0268346 -0.010874,-0.051122 -0.0284449,-0.0686969z"/><path class="fil0" d="M0.933331 5.25956l4.96 0 0.08 0 0 0.08 0 0.472382 0 0.08 -0.08 0 -4.96 0 -0.08 0 0 -0.08 0 -0.472382 0 -0.08 0.08 0zm4.88 0.16l-4.8 0 0 0.312382 4.8 0 0 -0.312382z"/><path class="fil0" d="M2.22869 1.77641l0.371157 0 0.08 0 0 0.08 0 1.04385 0 0.08 -0.08 0 -0.371157 0 -0.08 0 0 -0.08 0 -1.04385 0 -0.08 0.08 0zm0.291157 0.16l-0.211157 0 0 0.88385 0.211157 0 0 -0.88385z"/><polygon class="fil0" points="2.65641,2.09721 2.28104,2.47259 2.16791,2.35946 2.54329,1.98409 "/><polygon class="fil0" points="2.65641,2.48145 2.28104,2.85682 2.16791,2.7437 2.54329,2.36832 "/><path class="fil0" d="M2.48166 1.06722c0.0289921,-0.0333071 0.0254961,-0.0838189 -0.00781102,-0.112811 -0.0333071,-0.0289921 -0.0838189,-0.0254961 -0.112811,0.00781102 -0.00144882,0.00166535 -0.511894,0.580807 0.039685,0.728602 0.0426299,0.0113898 0.0864252,-0.0139331 0.097815,-0.056563 0.0113898,-0.0426299 -0.0139331,-0.0864252 -0.056563,-0.097815 -0.301791,-0.0808622 0.0387165,-0.468114 0.039685,-0.469224z"/><path class="fil0" d="M2.48164 0.962217c-0.0289921,-0.0333071 -0.0795039,-0.0368031 -0.112811,-0.00781102 -0.0333071,0.0289921 -0.0368031,0.0795039 -0.00781102,0.112811 0.000968504,0.00111024 0.34148,0.388358 0.039685,0.469224 -0.0426299,0.0113898 -0.0679528,0.055185 -0.056563,0.097815 0.0113898,0.0426299 0.055185,0.0679528 0.097815,0.056563 0.551579,-0.147795 0.0411339,-0.726937 0.039685,-0.728602z"/><path class="fil0" d="M3.2243 1.77641l0.371157 0 0.08 0 0 0.08 0 1.04385 0 0.08 -0.08 0 -0.371157 0 -0.08 0 0 -0.08 0 -1.04385 0 -0.08 0.08 0zm0.291157 0.16l-0.211157 0 0 0.88385 0.211157 0 0 -0.88385z"/><polygon class="fil0" points="3.65202,2.09721 3.27665,2.47259 3.16352,2.35946 3.5389,1.98409 "/><polygon class="fil0" points="3.65202,2.48145 3.27665,2.85682 3.16352,2.7437 3.5389,2.36832 "/><path class="fil0" d="M3.47727 1.06722c0.0289921,-0.0333071 0.0254961,-0.0838189 -0.00781102,-0.112811 -0.0333071,-0.0289921 -0.0838189,-0.0254961 -0.112811,0.00781102 -0.00144882,0.00166535 -0.511894,0.580807 0.039685,0.728602 0.0426299,0.0113898 0.0864252,-0.0139331 0.097815,-0.056563 0.0113898,-0.0426299 -0.0139331,-0.0864252 -0.056563,-0.097815 -0.301791,-0.0808622 0.0387165,-0.468114 0.039685,-0.469224z"/><path class="fil0" d="M3.47725 0.962217c-0.0289921,-0.0333071 -0.0795039,-0.0368031 -0.112811,-0.00781102 -0.0333071,0.0289921 -0.0368031,0.0795039 -0.00781102,0.112811 0.000968504,0.00111024 0.341476,0.388358 0.039685,0.469224 -0.0426299,0.0113898 -0.0679528,0.055185 -0.056563,0.097815 0.0113898,0.0426299 0.055185,0.0679528 0.097815,0.056563 0.551579,-0.147795 0.0411339,-0.726937 0.039685,-0.728602z"/><path class="fil0" d="M4.21991 1.77641l0.371157 0 0.08 0 0 0.08 0 1.04385 0 0.08 -0.08 0 -0.371157 0 -0.08 0 0 -0.08 0 -1.04385 0 -0.08 0.08 0zm0.291157 0.16l-0.211157 0 0 0.88385 0.211157 0 0 -0.88385z"/><polygon class="fil0" points="4.64763,2.09721 4.27226,2.47259 4.15913,2.35946 4.53451,1.98409 "/><polygon class="fil0" points="4.64763,2.48145 4.27226,2.85682 4.15913,2.7437 4.53451,2.36832 "/><path class="fil0" d="M4.47288 1.06722c0.0289921,-0.0333071 0.0254961,-0.0838189 -0.00781102,-0.112811 -0.0333071,-0.0289921 -0.0838189,-0.0254961 -0.112811,0.00781102 -0.00144882,0.00166535 -0.511894,0.580807 0.039685,0.728602 0.0426299,0.0113898 0.0864252,-0.0139331 0.097815,-0.056563 0.0113898,-0.0426299 -0.0139331,-0.0864252 -0.056563,-0.097815 -0.301795,-0.0808661 0.0387165,-0.468114 0.039685,-0.469224z"/><path class="fil0" d="M4.47286 0.962217c-0.0289921,-0.0333071 -0.0795039,-0.0368031 -0.112811,-0.00781102 -0.0333071,0.0289921 -0.0368031,0.0795039 -0.00781102,0.112811 0.000968504,0.00111024 0.341476,0.388358 0.039685,0.469224 -0.0426299,0.0113898 -0.0679528,0.055185 -0.056563,0.097815 0.0113898,0.0426299 0.055185,0.0679528 0.097815,0.056563 0.551579,-0.147795 0.0411339,-0.726937 0.039685,-0.728602z"/></g><rect class="fil1" width="6.82666" height="6.82666"/><text x="0" y="21.82666" fill="#000000" font-size="5px" font-weight="bold" font-family="'Helvetica Neue', Helvetica, Arial-Unicode, Arial, Sans-serif">Created by IYIKON</text><text x="0" y="26.82666" fill="#000000" font-size="5px" font-weight="bold" font-family="'Helvetica Neue', Helvetica, Arial-Unicode, Arial, Sans-serif">from the Noun Project</text></svg>