<svg xmlns="http://www.w3.org/2000/svg" xmlns:xlink="http://www.w3.org/1999/xlink" xml:space="preserve" style="shape-rendering:geometricPrecision;text-rendering:geometricPrecision;image-rendering:optimizeQuality;" viewBox="0 0 6.82666 8.533325000000001" x="0px" y="0px" fill-rule="evenodd" clip-rule="evenodd"><defs><style type="text/css">
   
    .fil1 {fill:none}
    .fil0 {fill:black;fill-rule:nonzero}
   
  </style></defs><g><path class="fil0" d="M3.08833 5.43154c-0.499476,0 -0.980591,-0.135886 -1.37131,-0.365366 -0.394248,-0.231547 -0.697217,-0.559051 -0.836272,-0.939819l-0.000212598 7.87402e-005c-0.000366142,-0.001 -0.000700787,-0.002 -0.00102362,-0.00300394 -0.022752,-0.0648031 -0.0304134,-0.129823 -0.0236732,-0.191811 0.00704331,-0.0648071 0.0297008,-0.12565 0.0672008,-0.179 0.054378,-0.0773228 0.135787,-0.12789 0.22474,-0.14652 0.0873701,-0.0182992 0.182224,-0.0057126 0.265835,0.0427008 0.193323,0.112449 0.411047,0.201039 0.637602,0.26161 0.226236,0.0604843 0.461063,0.0928031 0.688937,0.0928031 0.133398,0 0.263283,-0.0108346 0.388772,-0.0322953 0.126205,-0.0215866 0.24811,-0.0537402 0.364815,-0.096248 0.339898,-0.124047 0.625976,-0.332961 0.855524,-0.572657 0.288055,-0.300783 0.486425,-0.648945 0.590567,-0.939142 0.0121339,-0.0337087 0.0278937,-0.064252 0.0466299,-0.0911929 0.0119685,-0.0172126 0.0252362,-0.033248 0.0396378,-0.0479921l0 -0.349327c0,-0.0441811 0.0358189,-0.08 0.08,-0.08l0.399213 0c0.0441811,0 0.08,0.0358189 0.08,0.08l0 0.385717c0.00987795,0.0123189 0.019122,0.0253031 0.0276614,0.0389055 0.0157953,0.0251614 0.0291299,0.0520827 0.0395787,0.0804291l0.000110236 -3.93701e-005c0.00076378,0.00207874 0.00143307,0.00416142 0.00201969,0.00625984 0.0858386,0.238437 0.109465,0.509425 0.0741614,0.789421 -0.0352992,0.280008 -0.129669,0.569354 -0.279701,0.844028 -0.159291,0.291543 -0.367287,0.548398 -0.612106,0.760319 -0.245094,0.212161 -0.527181,0.379445 -0.834354,0.491606 -0.146386,0.0533622 -0.296315,0.0935079 -0.44861,0.120209 -0.152921,0.0268071 -0.308555,0.0403268 -0.46574,0.0403268zm-1.29069 -0.50287c0.366665,0.21535 0.819425,0.34287 1.29069,0.34287 0.148339,0 0.29478,-0.0126811 0.438236,-0.0378307 0.14424,-0.0252874 0.285185,-0.0629291 0.421736,-0.112705 0.288657,-0.105402 0.553839,-0.262689 0.784354,-0.462228 0.230654,-0.199661 0.426547,-0.441528 0.576484,-0.715949 0.14048,-0.257185 0.228728,-0.527228 0.261575,-0.787776 0.0321614,-0.255028 0.0110906,-0.500646 -0.0661732,-0.715417 -0.000724409,-0.00162205 -0.00140157,-0.00327559 -0.00202362,-0.00496457l0.000208661 -7.87402e-005 -3.93701e-005 -0.000106299 -9.84252e-005 3.54331e-005c-0.00679134,-0.0184449 -0.0150787,-0.0353425 -0.0246181,-0.0505394 -0.00891339,-0.0141969 -0.0190118,-0.0272441 -0.0300984,-0.0390039 -0.0163937,-0.0146496 -0.0267126,-0.0359528 -0.0267126,-0.0596654 0,-0.00891339 0.00146063,-0.0174843 0.00414961,-0.0254882l0 -0.305465 -0.239213 0 0 0.304079 0 6.69291e-005c-1.1811e-005,0.0230315 -0.00992126,0.0458819 -0.029063,0.061689l-6.29921e-005 -7.48031e-005c-0.0147165,0.0121614 -0.0279409,0.0265315 -0.0392598,0.042811 -0.0116102,0.0166969 -0.0210512,0.0347047 -0.0278819,0.053689 -0.110705,0.308492 -0.320937,0.677925 -0.625567,0.996016 -0.244752,0.255575 -0.55089,0.478732 -0.916146,0.612035 -0.126358,0.0460236 -0.257453,0.0806811 -0.392319,0.103752 -0.135185,0.0231181 -0.274055,0.0347913 -0.415646,0.0347913 -0.241354,0 -0.490248,-0.0342756 -0.730189,-0.0984252 -0.239591,-0.0640551 -0.470528,-0.158142 -0.67635,-0.277862 -0.0481772,-0.0278976 -0.102898,-0.0351378 -0.153331,-0.0245748 -0.0503268,0.0105394 -0.0962087,0.0388976 -0.126622,0.0821417 -0.021811,0.0310276 -0.0349882,0.0663819 -0.0390748,0.104 -0.00416535,0.0382756 0.000948819,0.0795236 0.0157559,0.121776l0.000492126 0.00129921 -3.14961e-005 1.1811e-005 0.000192913 0.000547244 -0.000169291 5.90551e-005c0.125961,0.344717 0.403846,0.643307 0.766815,0.856484z"/><path class="fil0" d="M4.76614 1.39512l1.03326 0c0.0479134,0 0.0914213,0.0195472 0.122902,0.0510276l0 0.000311024c0.0314803,0.0314882 0.0510276,0.0748898 0.0510276,0.122594l0 0.211354c0,0.0477047 -0.0195472,0.0911024 -0.0510276,0.122591l0 0.000311024c-0.0314803,0.0314803 -0.0749882,0.0510276 -0.122902,0.0510276l-1.03326 0c-0.0477047,0 -0.0911024,-0.0195472 -0.122591,-0.0510276l-0.000311024 -0.000311024c-0.0314803,-0.0314882 -0.0510276,-0.0748858 -0.0510276,-0.122591l0 -0.211354c0,-0.0477047 0.0195472,-0.0911063 0.0510276,-0.122594l0 -0.000311024c0.0314803,-0.0314803 0.0749882,-0.0510276 0.122902,-0.0510276zm1.03326 0.16l-1.03326 0c-0.00374409,0 -0.00721654,0.00159449 -0.00977559,0.00415354l-0.000153543 -0.000153543c-0.0024685,0.00254724 -0.004,0.00605906 -0.004,0.00993307l0 0.211354c0,0.00387402 0.0015315,0.00738189 0.004,0.00992913 0.00254724,0.0024685 0.00605512,0.004 0.00992913,0.004l1.03326 0c0.00374409,0 0.00721654,-0.00159449 0.00977559,-0.00415354l0.000153543 0.000153543c0.0024685,-0.00254724 0.004,-0.00605512 0.004,-0.00992913l0 -0.211354c0,-0.00387402 -0.0015315,-0.00738583 -0.004,-0.00993307l-0.000153543 0.000153543c-0.00255906,-0.00255906 -0.0060315,-0.00415354 -0.00977559,-0.00415354z"/><path class="fil0" d="M5.39896 2.7895c0.00949213,-0.0429724 -0.0176496,-0.0855079 -0.060622,-0.095 -0.0429724,-0.00949213 -0.0855079,0.0176496 -0.095,0.060622 -0.00191732,0.0086063 -0.637626,3.01788 -3.57536,1.48466 -0.0390039,-0.0203622 -0.0871378,-0.00525197 -0.1075,0.033752 -0.0203622,0.0390039 -0.00525197,0.0871378 0.033752,0.1075 3.12385,1.63036 3.80269,-1.58234 3.80473,-1.59153z"/></g><rect class="fil1" width="6.82666" height="6.82666"/><text x="0" y="21.82666" fill="#000000" font-size="5px" font-weight="bold" font-family="'Helvetica Neue', Helvetica, Arial-Unicode, Arial, Sans-serif">Created by IYIKON</text><text x="0" y="26.82666" fill="#000000" font-size="5px" font-weight="bold" font-family="'Helvetica Neue', Helvetica, Arial-Unicode, Arial, Sans-serif">from the Noun Project</text></svg>