<svg xmlns="http://www.w3.org/2000/svg" xmlns:xlink="http://www.w3.org/1999/xlink" xml:space="preserve" style="shape-rendering:geometricPrecision;text-rendering:geometricPrecision;image-rendering:optimizeQuality;" viewBox="0 0 6.82666 8.533325000000001" x="0px" y="0px" fill-rule="evenodd" clip-rule="evenodd"><defs><style type="text/css">
   
    .fil1 {fill:none}
    .fil0 {fill:black;fill-rule:nonzero}
   
  </style></defs><g><path class="fil0" d="M3.41333 2.03178c0.405709,0 0.771213,0.224291 1.03416,0.586921 0.257567,0.355205 0.416878,0.844555 0.416878,1.38385 0,0.539295 -0.159311,1.02865 -0.416878,1.38385 -0.262949,0.362626 -0.628449,0.586917 -1.03416,0.586917 -0.405713,0 -0.771217,-0.224295 -1.03416,-0.586917 -0.257567,-0.355209 -0.416878,-0.844559 -0.416878,-1.38385 0,-0.539299 0.159311,-1.02865 0.416878,-1.38385 0.262945,-0.362626 0.628445,-0.586921 1.03416,-0.586921zm0.904783 0.680669c-0.233268,-0.321697 -0.553295,-0.520669 -0.904783,-0.520669 -0.351488,0 -0.67152,0.198976 -0.90478,0.520669 -0.23865,0.329114 -0.386256,0.785154 -0.386256,1.29011 0,0.504949 0.14761,0.960992 0.386256,1.29011 0.233264,0.321693 0.553291,0.520665 0.90478,0.520665 0.351488,0 0.67152,-0.198976 0.904783,-0.520665 0.238646,-0.329114 0.386256,-0.785157 0.386256,-1.29011 0,-0.504953 -0.147606,-0.960992 -0.386256,-1.29011z"/><polygon class="fil0" points="2.67509,5.57545 4.73468,3.94006 4.83406,4.06506 2.77447,5.70045 "/><polygon class="fil0" points="2.24432,5.00334 4.60283,3.13059 4.70221,3.25559 2.3437,5.12834 "/><polygon class="fil0" points="2.02044,4.31098 4.2765,2.51958 4.37588,2.64458 2.11981,4.43598 "/><polygon class="fil0" points="3.75252,2.21651 2.15835,3.48235 2.05897,3.35735 3.65315,2.09151 "/><polygon class="fil0" points="2.9553,2.18554 4.8292,3.75714 4.7267,3.87965 2.8528,2.30804 "/><polygon class="fil0" points="2.47614,2.68607 4.75505,4.59735 4.65255,4.71985 2.37364,2.80857 "/><polygon class="fil0" points="2.16645,3.33135 4.47011,5.26339 4.36761,5.38589 2.06394,3.45386 "/><polygon class="fil0" points="2.10598,4.19704 3.92516,5.72275 3.82265,5.84525 2.00348,4.31954 "/><path class="fil0" d="M2.92709 2.28057c0.0372756,0.0234685 0.0865315,0.0122756 0.11,-0.025 0.0234685,-0.0372756 0.0122756,-0.0865315 -0.025,-0.11 -0.0792992,-0.0500866 -0.156366,-0.127496 -0.214071,-0.246535 -0.0482008,-0.0994331 -0.0829646,-0.227768 -0.0948976,-0.393146l0.172047 0.0840787 -2.75591e-005 5.11811e-005c0.0396969,0.0193976 0.0876063,0.00294488 0.107004,-0.036752 0.00577953,-0.0118268 0.00837008,-0.0243858 0.00812205,-0.0366969l0 -0.262362 0.136461 0.11526 0.051563 -0.060937 -0.051622 0.0611181c0.033752,0.0285079 0.0842323,0.0242559 0.11274,-0.00949606 0.00515748,-0.0061063 0.00923622,-0.0127677 0.0122717,-0.0197402l0.132094 -0.243346 0.144787 0.245839c0.00245276,0.0051378 0.00548031,0.0100906 0.00912205,0.0147677 0.0271378,0.0348622 0.0774055,0.041122 0.112268,0.0139843l-3.14961e-005 -3.93701e-005 0.161685 -0.125866 0 0.271028c-0.000204724,0.011437 0.00205118,0.0230984 0.00705906,0.0342165 0.0181417,0.0402835 0.0655118,0.0582283 0.105795,0.0400866l-0.0328543 -0.0729409 0.032811 0.072811 0.199055 -0.0896575c-0.0122717,0.162004 -0.048378,0.288559 -0.0987283,0.38728 -0.0604921,0.118606 -0.141717,0.197031 -0.226114,0.248661 -0.037622,0.0229528 -0.0495157,0.0720669 -0.026563,0.109689 0.0229528,0.037622 0.0720669,0.0495157 0.109689,0.026563 0.107236,-0.0656063 0.209965,-0.164323 0.285492,-0.312409 0.0733189,-0.143752 0.120815,-0.333949 0.120815,-0.585472 0,-0.0441811 -0.0358189,-0.08 -0.08,-0.08 -0.0134409,0 -0.0261063,0.0033189 -0.0372283,0.00917717l-0.199228 0.0897362 0 -0.31237c0,-0.0441811 -0.0358189,-0.08 -0.08,-0.08 -0.0195118,0 -0.0373898,0.00698425 -0.0512717,0.0185906l-0.21702 0.168953 -0.139835 -0.237425c-0.000389764,-0.00076378 -0.000783465,-0.00152756 -0.00120079,-0.0022874l-0.0280551 -0.0509764c-0.00701181,-0.0147953 -0.0186063,-0.0275787 -0.0340984,-0.0359882 -0.0388307,-0.0210748 -0.0874016,-0.00668504 -0.108476,0.0321457l0.000255906 0.000137795 -0.156909 0.289067 -0.189244 -0.159843c-0.0143858,-0.0138504 -0.033937,-0.022374 -0.0554843,-0.022374 -0.0441811,0 -0.08,0.0358189 -0.08,0.08l0 0.307921 -0.173539 -0.0848071c-0.0113346,-0.00615748 -0.0243268,-0.00965748 -0.0381339,-0.00965748 -0.0441811,0 -0.08,0.0358189 -0.08,0.08 0,0.256024 0.0456575,0.448366 0.115677,0.592807 0.0724882,0.149535 0.170929,0.247803 0.272819,0.312157zm0.485189 -1.29215l-0.07 0.038437c0.00120472,0.00219685 0.00250394,0.00431102 0.00388189,0.00634646l-0.00263386 -0.00447244 0.068752 -0.040311zm0.237445 0.383047l-0.0489134 -0.0629331 0.0489606 0.0628937c0.0311378,-0.0241732 0.0402638,-0.0682874 0.0197913,-0.103205l-0.068752 0.040311 -0.068752 0.040311c0.0222598,0.0379685 0.0710945,0.0507008 0.109063,0.0284409 0.0030315,-0.00177559 0.00589764,-0.00372047 0.00860236,-0.0058189z"/></g><rect class="fil1" width="6.82666" height="6.82666"/><text x="0" y="21.82666" fill="#000000" font-size="5px" font-weight="bold" font-family="'Helvetica Neue', Helvetica, Arial-Unicode, Arial, Sans-serif">Created by IYIKON</text><text x="0" y="26.82666" fill="#000000" font-size="5px" font-weight="bold" font-family="'Helvetica Neue', Helvetica, Arial-Unicode, Arial, Sans-serif">from the Noun Project</text></svg>