<svg xmlns="http://www.w3.org/2000/svg" xmlns:xlink="http://www.w3.org/1999/xlink" xml:space="preserve" style="shape-rendering:geometricPrecision;text-rendering:geometricPrecision;image-rendering:optimizeQuality;" viewBox="0 0 6.82666 8.533325000000001" x="0px" y="0px" fill-rule="evenodd" clip-rule="evenodd"><defs><style type="text/css">
   
    .fil1 {fill:none}
    .fil0 {fill:black;fill-rule:nonzero}
   
  </style></defs><g><path class="fil0" d="M1.35455 1.88865l1.89413 1.70614 1.89414 -1.70614 -3.78827 0zm1.84067 1.873l-2.0991 -1.89076c-0.0181378,-0.0146654 -0.0297441,-0.0370984 -0.0297441,-0.0622402 0,-0.0441811 0.0358189,-0.08 0.08,-0.08l4.20461 0 0 3.93701e-006c0.0218701,7.87402e-006 0.0436535,0.0089252 0.0594409,0.0264528 0.0295709,0.0328268 0.0269291,0.0834134 -0.00589764,0.112984l-0.0535433 -0.0594409 0.053437 0.059374 -2.09901 1.89068c-0.029874,0.0300906 -0.0784291,0.0317205 -0.110276,0.00303543l8.26772e-005 -9.05512e-005z"/><path class="fil0" d="M1.58425 2.12257c-0.0441811,0 -0.08,0.0358189 -0.08,0.08 0,0.0441811 0.0358189,0.08 0.08,0.08l3.32942 0c0.0441811,0 0.08,-0.0358189 0.08,-0.08 0,-0.0441811 -0.0358189,-0.08 -0.08,-0.08l-3.32942 0z"/><path class="fil0" d="M3.16869 5.7475c0,0.0441811 0.0358189,0.08 0.08,0.08 0.0441811,0 0.08,-0.0358189 0.08,-0.08l0 -2.0452c0,-0.0441811 -0.0358189,-0.08 -0.08,-0.08 -0.0441811,0 -0.08,0.0358189 -0.08,0.08l0 2.0452z"/><path class="fil0" d="M2.2997 5.66749c-0.0441811,0 -0.08,0.0358189 -0.08,0.08 0,0.0441811 0.0358189,0.08 0.08,0.08l1.89797 0c0.0441811,0 0.08,-0.0358189 0.08,-0.08 0,-0.0441811 -0.0358189,-0.08 -0.08,-0.08l-1.89797 0z"/><path class="fil0" d="M5.31054 1.11507c0.18302,0 0.34872,0.0741929 0.468661,0.194134 0.119941,0.119941 0.194134,0.285642 0.194134,0.468661 0,0.18302 -0.0741929,0.34872 -0.194134,0.468665 -0.119941,0.119941 -0.285646,0.194134 -0.468661,0.194134 -0.0855354,0 -0.167488,-0.0163543 -0.242874,-0.0461142 -0.0779213,-0.0307559 -0.148854,-0.0761496 -0.20948,-0.132858l-0.0635354 -0.0594252 0.0644724 -0.0580748 0.283701 -0.255543 -0.414272 0 -0.0757638 0 -0.0039252 -0.075937c-0.000188976,-0.00365354 -0.000389764,-0.00937402 -0.000602362,-0.0175315 -0.000334646,-0.0129213 -0.000515748,-0.0156535 -0.000515748,-0.017315 0,-0.18302 0.0741929,-0.34872 0.194134,-0.468661 0.119941,-0.119941 0.285646,-0.194134 0.468661,-0.194134zm0.355535 0.30726c-0.0909803,-0.0909803 -0.216685,-0.14726 -0.355535,-0.14726 -0.138846,0 -0.264555,0.0562795 -0.355535,0.14726 -0.0800984,0.0800984 -0.133291,0.187114 -0.144874,0.306319l0.540862 0 0.053437 0.139374 -0.368181 0.331638c0.0279685,0.0181654 0.0579449,0.0336693 0.0895433,0.0461417 0.0569882,0.0224961 0.119311,0.0348622 0.184748,0.0348622 0.138846,0 0.264555,-0.0562795 0.355535,-0.14726 0.0909803,-0.0909843 0.14726,-0.216689 0.14726,-0.355539 0,-0.13885 -0.0562795,-0.264555 -0.14726,-0.355535z"/><path class="fil0" d="M2.87729 3.01376c0.0179488,0.0402087 0.0651024,0.0582598 0.105311,0.040311 0.0402087,-0.0179488 0.0582598,-0.0651024 0.040311,-0.105311l-0.756606 -1.68672 -0.072811 0.0325 0.0729921 -0.0327402c-0.0119567,-0.0266614 -0.0367126,-0.0435669 -0.0637717,-0.0467323l-1.25595 -0.214657c-0.0434921,-0.00741732 -0.0847717,0.0218228 -0.092189,0.065315 -0.00741732,0.0434921 0.0218228,0.0847717 0.065315,0.092189l1.21833 0.208228 0.739067 1.64762z"/></g><rect class="fil1" width="6.82666" height="6.82666"/><text x="0" y="21.82666" fill="#000000" font-size="5px" font-weight="bold" font-family="'Helvetica Neue', Helvetica, Arial-Unicode, Arial, Sans-serif">Created by IYIKON</text><text x="0" y="26.82666" fill="#000000" font-size="5px" font-weight="bold" font-family="'Helvetica Neue', Helvetica, Arial-Unicode, Arial, Sans-serif">from the Noun Project</text></svg>