<svg xmlns="http://www.w3.org/2000/svg" xmlns:xlink="http://www.w3.org/1999/xlink" xml:space="preserve" style="shape-rendering:geometricPrecision;text-rendering:geometricPrecision;image-rendering:optimizeQuality;" viewBox="0 0 6.82666 8.533325000000001" x="0px" y="0px" fill-rule="evenodd" clip-rule="evenodd"><defs><style type="text/css">
   
    .fil1 {fill:none}
    .fil0 {fill:black;fill-rule:nonzero}
   
  </style></defs><g><g><path class="fil0" d="M3.36719 5.66922c-0.089189,0.0517953 -0.255169,0.104488 -0.419913,0.129638 -0.133154,0.0203268 -0.26124,0.0223504 -0.337783,-0.00987402l-0.000641732 -0.000326772 5.11811e-005 -0.000122047 -0.00141339 -0.00057874c-0.937276,-0.473646 -1.33002,-1.3661 -1.3159,-2.14904 0.00520866,-0.289039 0.0660197,-0.56274 0.175425,-0.794236 0.10763,-0.227748 0.262004,-0.413724 0.456126,-0.531469 0.354976,-0.215303 0.850039,-0.20437 1.44581,0.193524l0.044374 -0.066252 -0.0444291 0.0665276c0.0295236,0.0197165 0.0673976,0.0171929 0.093874,-0.00362205 0.593508,-0.394567 1.08678,-0.404862 1.44074,-0.190177 0.194126,0.117744 0.348496,0.30372 0.45613,0.531469 0.109402,0.231496 0.170213,0.505201 0.175421,0.794236 0.0141339,0.7835 -0.379169,1.67669 -1.3179,2.15007 -0.0765433,0.0322244 -0.204634,0.0301969 -0.337783,0.00987402 -0.167917,-0.0256299 -0.337126,-0.0798858 -0.424988,-0.13263l0.000129921 -0.000216535c-0.0280276,-0.0168386 -0.0622323,-0.0144961 -0.0873425,0.00320866zm-0.396165 0.287764c0.164382,-0.0250906 0.333362,-0.0769646 0.442307,-0.131598 0.108945,0.0546339 0.277929,0.106508 0.442311,0.131598 0.15587,0.0237913 0.311933,0.0239528 0.418528,-0.0188583 0.00364961,-0.0012126 0.00725591,-0.00270079 0.0107953,-0.00447638l-0.000153543 -0.00030315c1.00414,-0.504449 1.42475,-1.45931 1.40964,-2.29694 -0.00562992,-0.312189 -0.0716378,-0.608512 -0.190421,-0.859858 -0.120559,-0.255094 -0.295764,-0.464799 -0.518004,-0.599594 -0.396642,-0.240575 -0.936331,-0.240665 -1.57269,0.168264 -0.636362,-0.408929 -1.17605,-0.408839 -1.57269,-0.168264 -0.222232,0.134791 -0.397445,0.3445 -0.518,0.599594 -0.118787,0.25135 -0.184795,0.547669 -0.190425,0.859858 -0.0150709,0.835587 0.403496,1.78779 1.40236,2.29319 0.0036811,0.00234252 0.00759843,0.00442126 0.011748,0.00618504l7.48031e-005 -0.000173228c0.106693,0.0453307 0.26576,0.0456181 0.42463,0.0213701z"/><path class="fil0" d="M4.21838 0.853665c0.0440079,-0.00137795 0.080811,0.0331811 0.082189,0.077189 0.00137795,0.0440079 -0.0331811,0.080811 -0.077189,0.082189 -0.00324409,0.000106299 -1.13685,0.0235236 -0.717724,1.40431 0.0127717,0.0421102 -0.0110157,0.0866063 -0.053126,0.099378 -0.0421102,0.0127717 -0.0866063,-0.0110157 -0.099378,-0.053126 -0.480067,-1.58156 0.861386,-1.60981 0.865228,-1.60994z"/><path class="fil0" d="M2.46317 1.14281c0.627409,0.0428543 0.757744,0.571811 0.784803,0.784803 -0.212992,-0.0270591 -0.741949,-0.157394 -0.784803,-0.784803zm0.951303 0.870236c-8.26772e-005,-0.00746457 -0.00966535,-1.03146 -1.03182,-1.03302 -0.000767717,-1.9685e-005 -0.00153543,-3.54331e-005 -0.00230709,-3.54331e-005 -0.0441811,0 -0.08,0.0358189 -0.08,0.08 0,0.976433 0.931657,1.03091 1.02551,1.03394 0.00337795,0.000377953 0.0068189,0.00053937 0.0103071,0.000480315 0.0441732,-0.000759843 0.0793661,-0.0371969 0.0786063,-0.0813701l-0.000299213 3.93701e-006z"/></g></g><rect class="fil1" width="6.82666" height="6.82666"/><text x="0" y="21.82666" fill="#000000" font-size="5px" font-weight="bold" font-family="'Helvetica Neue', Helvetica, Arial-Unicode, Arial, Sans-serif">Created by IYIKON</text><text x="0" y="26.82666" fill="#000000" font-size="5px" font-weight="bold" font-family="'Helvetica Neue', Helvetica, Arial-Unicode, Arial, Sans-serif">from the Noun Project</text></svg>