<svg xmlns="http://www.w3.org/2000/svg" xmlns:xlink="http://www.w3.org/1999/xlink" xml:space="preserve" style="shape-rendering:geometricPrecision;text-rendering:geometricPrecision;image-rendering:optimizeQuality;" viewBox="0 0 6.82666 8.533325000000001" x="0px" y="0px" fill-rule="evenodd" clip-rule="evenodd"><defs><style type="text/css">
   
    .fil1 {fill:none}
    .fil0 {fill:black;fill-rule:nonzero}
   
  </style></defs><g><path class="fil0" d="M2.92996 1.08535c-0.0157047,-0.041248 -0.061878,-0.0619567 -0.103126,-0.046252 -0.041248,0.0157047 -0.0619567,0.061878 -0.046252,0.103126 0.000744094,0.00194882 0.263945,0.677402 -0.0157913,1.09151l-7.08661e-005 -4.72441e-005c-0.0019685,0.00291339 -0.0037126,0.00590945 -0.00525197,0.0089685 -0.0807047,0.131953 -0.25548,0.295862 -0.454252,0.48226 -0.646795,0.606528 -1.53301,1.43761 -0.613913,2.42704l-8.26772e-005 7.48031e-005 0.0014685 0.00166929 -2.75591e-005 2.3622e-005 0.000807087 0.00084252c0.0364173,0.0405512 0.534909,0.570012 1.72299,0.521768 0.0440079,-0.00172441 0.0782874,-0.0388071 0.076563,-0.082815 -0.00172441,-0.0440079 -0.0388071,-0.0782874 -0.082815,-0.076563 -1.11426,0.0452441 -1.56443,-0.432047 -1.597,-0.468299 -0.00109449,-0.00133858 -0.00223228,-0.00265748 -0.00342913,-0.00394094l-0.000129921 0.000122047c-0.81326,-0.873756 0.00665354,-1.64262 0.604945,-2.20367 0.207138,-0.194244 0.389272,-0.365043 0.48135,-0.515972 0.000456693,-0.000637795 0.000909449,-0.00127953 0.00135039,-0.00193307l-0.000125984 -8.66142e-005 3.14961e-005 -5.11811e-005 5.90551e-005 3.93701e-005c0.326803,-0.483673 0.0335315,-1.23564 0.0327008,-1.23781z"/><path class="fil0" d="M4.04608 1.14223c0.0157047,-0.041248 -0.00500394,-0.0874213 -0.046252,-0.103126 -0.041248,-0.0157047 -0.0874213,0.00500394 -0.103126,0.046252 -0.000830709,0.00217323 -0.294102,0.754142 0.0327008,1.23781l5.90551e-005 -3.93701e-005 3.14961e-005 5.11811e-005 -0.000125984 8.66142e-005c0.000440945,0.000653543 0.000893701,0.00129528 0.00135039,0.00193307 0.0920748,0.150929 0.274213,0.321728 0.48135,0.515972 0.598291,0.561043 1.4182,1.32991 0.604945,2.20367l-0.000129921 -0.000122047c-0.00119685,0.00128346 -0.00233465,0.00260236 -0.00342913,0.00394094 -0.0325669,0.036252 -0.482732,0.513543 -1.597,0.468299 -0.0440079,-0.00172441 -0.0810906,0.0325551 -0.082815,0.076563 -0.00172441,0.0440079 0.0325551,0.0810906 0.076563,0.082815 1.18808,0.0482441 1.68657,-0.481217 1.72299,-0.521768l0.000807087 -0.00084252 -2.75591e-005 -2.3622e-005 0.0014685 -0.00166929 -8.26772e-005 -7.48031e-005c0.919094,-0.989425 0.0328819,-1.82051 -0.613913,-2.42704 -0.198772,-0.186398 -0.373547,-0.350307 -0.454252,-0.48226 -0.00153937,-0.00305906 -0.00328346,-0.00605512 -0.00525197,-0.0089685l-7.08661e-005 4.72441e-005c-0.279736,-0.41411 -0.0165354,-1.08956 -0.0157913,-1.09151z"/><path class="fil0" d="M3.06621 2.82693c0.0348622,-0.0269213 0.0412953,-0.0770157 0.014374,-0.111878 -0.0269213,-0.0348622 -0.0770157,-0.0412953 -0.111878,-0.014374 -0.00490157,0.0037874 -1.72154,1.31237 -0.622492,2.27052 0.0331339,0.0289921 0.0835079,0.0256339 0.1125,-0.0075 0.0289921,-0.0331339 0.0256339,-0.0835079 -0.0075,-0.1125 -0.951346,-0.829394 0.610535,-2.02082 0.614996,-2.02427z"/><path class="fil0" d="M3.85796 2.70068c-0.0348622,-0.0269213 -0.0849567,-0.0204882 -0.111878,0.014374 -0.0269213,0.0348622 -0.0204882,0.0849567 0.014374,0.111878 0.00446063,0.00344882 1.56634,1.19488 0.614996,2.02427 -0.0331339,0.0289921 -0.0364921,0.0793661 -0.0075,0.1125 0.0289921,0.0331339 0.0793661,0.0364921 0.1125,0.0075 1.09905,-0.958157 -0.617591,-2.26674 -0.622492,-2.27052z"/><path class="fil0" d="M2.80426 0.889575c-0.0241614,-0.0369331 -0.0736929,-0.0472835 -0.110626,-0.023122 -0.0369331,0.0241614 -0.0472835,0.0736929 -0.023122,0.110626l0.458024 0.699894 0.066874 -0.043752 -0.0669409 0.0438071c0.0241929,0.0369685 0.0737795,0.0473268 0.110748,0.0231339 0.0147087,-0.00962598 0.0252008,-0.0232717 0.0309843,-0.0385433l0.207571 -0.424602 0.144354 0.421831 0.075626 -0.025626 -0.075689 0.0259016c0.0143031,0.0417992 0.0597913,0.0640906 0.101591,0.0497874 0.021874,-0.00748425 0.0383937,-0.0235079 0.0471378,-0.0430748l0.366961 -0.695319c0.0205354,-0.0390039 0.00556693,-0.0872795 -0.033437,-0.107815 -0.0390039,-0.0205354 -0.0872795,-0.00556693 -0.107815,0.033437l-0.283051 0.536331 -0.145461 -0.425071c-0.00590945,-0.0212835 -0.0205472,-0.0400394 -0.0419488,-0.0505 -0.039689,-0.0194016 -0.0876024,-0.00295276 -0.107004,0.0367362l0.000299213 0.000145669 -0.233843 0.478343 -0.381232 -0.582547z"/><path class="fil0" d="M3.00679 5.56167c-0.0320984,-0.0302008 -0.0826142,-0.0286614 -0.112815,0.00343701 -0.0302008,0.0320984 -0.0286614,0.0826142 0.00343701,0.112815 0,0 0.0164685,-0.00982677 0.00875197,-0.00437008 -0.15374,0.108693 0.0305748,0.277736 0.0310945,0.278217 0.0322717,0.0298543 0.0826457,0.0278976 0.1125,-0.00437402 0.0298543,-0.0322717 0.0278976,-0.0826457 -0.00437402,-0.1125 -0.000106299,-9.84252e-005 -0.0554291,-0.0250079 -0.0473465,-0.0307205 0.153374,-0.108429 0.00916142,-0.242118 0.00875197,-0.242504z"/><path class="fil0" d="M3.23437 5.5623c-0.0317559,-0.0305472 -0.0822638,-0.0295669 -0.112811,0.00218898 -0.0305472,0.0317559 -0.0295669,0.0822638 0.00218898,0.112811 0,0 0.0171732,-0.00925984 0.00937402,-0.00374409 -0.153744,0.108689 0.0305709,0.277736 0.0310906,0.278217 0.0322717,0.0298543 0.0826457,0.0278976 0.1125,-0.00437402 0.0298543,-0.0322717 0.0278976,-0.0826457 -0.00437402,-0.1125 -0.000106299,-9.84252e-005 -0.0554252,-0.0250079 -0.0473425,-0.0307205 0.153453,-0.108488 0.00977559,-0.241492 0.00937402,-0.241878z"/><path class="fil0" d="M3.46071 5.56167c-0.0320984,-0.0302008 -0.0826142,-0.0286614 -0.112815,0.00343701 -0.0302008,0.0320984 -0.0286614,0.0826142 0.00343701,0.112815 0,0 0.0164685,-0.00982677 0.00875197,-0.00437008 -0.153744,0.108689 0.0305709,0.277736 0.0310906,0.278217 0.0322717,0.0298543 0.0826457,0.0278976 0.1125,-0.00437402 0.0298543,-0.0322717 0.0278976,-0.0826457 -0.00437402,-0.1125 -0.000106299,-9.84252e-005 -0.0554252,-0.0250079 -0.0473425,-0.0307205 0.153378,-0.108433 0.00916142,-0.242118 0.00875197,-0.242504z"/><path class="fil0" d="M3.68767 5.56167c-0.0320984,-0.0302008 -0.0826142,-0.0286614 -0.112815,0.00343701 -0.0302008,0.0320984 -0.0286614,0.0826142 0.00343701,0.112815 0,0 0.0164724,-0.00982677 0.00875197,-0.00437008 -0.15374,0.108689 0.0305748,0.277736 0.0310945,0.278217 0.0322717,0.0298543 0.0826457,0.0278976 0.1125,-0.00437402 0.0298543,-0.0322717 0.0278976,-0.0826457 -0.00437402,-0.1125 -0.000106299,-9.84252e-005 -0.0554291,-0.0250079 -0.0473465,-0.0307205 0.153378,-0.108433 0.00916142,-0.242118 0.00875197,-0.242504z"/><path class="fil0" d="M3.91526 5.5623c-0.0317559,-0.0305472 -0.0822638,-0.0295669 -0.112811,0.00218898 -0.0305472,0.0317559 -0.0295669,0.0822638 0.00218898,0.112811 0,0 0.0171772,-0.00925984 0.00937402,-0.00374409 -0.15374,0.108689 0.0305709,0.277736 0.0310906,0.278217 0.0322717,0.0298543 0.0826457,0.0278976 0.1125,-0.00437402 0.0298543,-0.0322717 0.0278976,-0.0826457 -0.00437402,-0.1125 -0.000106299,-9.84252e-005 -0.0554252,-0.0250079 -0.0473425,-0.0307205 0.153457,-0.108492 0.00977559,-0.241492 0.00937402,-0.241878z"/></g><rect class="fil1" width="6.82666" height="6.82666"/><text x="0" y="21.82666" fill="#000000" font-size="5px" font-weight="bold" font-family="'Helvetica Neue', Helvetica, Arial-Unicode, Arial, Sans-serif">Created by IYIKON</text><text x="0" y="26.82666" fill="#000000" font-size="5px" font-weight="bold" font-family="'Helvetica Neue', Helvetica, Arial-Unicode, Arial, Sans-serif">from the Noun Project</text></svg>