<svg xmlns="http://www.w3.org/2000/svg" xmlns:xlink="http://www.w3.org/1999/xlink" xml:space="preserve" style="shape-rendering:geometricPrecision;text-rendering:geometricPrecision;image-rendering:optimizeQuality;" viewBox="0 0 6.82666 8.533325000000001" x="0px" y="0px" fill-rule="evenodd" clip-rule="evenodd"><defs><style type="text/css">
   
    .fil1 {fill:none}
    .fil0 {fill:black;fill-rule:nonzero}
   
  </style></defs><g><path class="fil0" d="M2.35702 2.1958c0.0417638,0.0141496 0.0871024,-0.00823622 0.101252,-0.05 0.0141496,-0.0417638 -0.00823622,-0.0871024 -0.05,-0.101252l-0.44128 -0.149622c-0.0417638,-0.0141496 -0.0871024,0.00823622 -0.101252,0.05 -0.0141496,0.0417638 0.00823622,0.0871024 0.05,0.101252l0.44128 0.149622z"/><path class="fil0" d="M4.78469 4.41629c-0.0141496,-0.0417638 -0.0594882,-0.0641496 -0.101252,-0.05 -0.0417638,0.0141496 -0.0641496,0.0594882 -0.05,0.101252l0.149622 0.441276c0.0141496,0.0417638 0.0594882,0.0641496 0.101252,0.05 0.0417638,-0.0141496 0.0641496,-0.0594882 0.05,-0.101252l-0.149622 -0.441276z"/><path class="fil0" d="M2.2715 2.84335c0.0440079,-0.000862205 0.0789882,-0.0372441 0.078126,-0.081252 -0.000862205,-0.0440079 -0.0372441,-0.0789882 -0.081252,-0.078126l-0.410724 0.00863386c-0.0440079,0.000862205 -0.0789882,0.0372441 -0.078126,0.081252 0.000862205,0.0440079 0.0372441,0.0789882 0.081252,0.078126l0.410724 -0.00863386z"/><path class="fil0" d="M4.14528 4.55619c0.000862205,-0.0440079 -0.0341181,-0.0803898 -0.078126,-0.081252 -0.0440079,-0.000862205 -0.0803898,0.0341181 -0.081252,0.078126l-0.00863386 0.410728c-0.000862205,0.0440079 0.0341181,0.0803898 0.078126,0.081252 0.0440079,0.000862205 0.0803898,-0.0341181 0.081252,-0.078126l0.00863386 -0.410728z"/><path class="fil0" d="M2.51413 3.49502c0.0422835,-0.0124252 0.0664882,-0.0567795 0.054063,-0.099063 -0.0124252,-0.0422835 -0.0567795,-0.0664882 -0.099063,-0.054063l-0.36585 0.108512c-0.0422835,0.0124252 -0.0664882,0.0567795 -0.054063,0.099063 0.0124252,0.0422835 0.0567795,0.0664882 0.099063,0.054063l0.36585 -0.108512z"/><path class="fil0" d="M3.48734 4.35543c0.0124252,-0.0422835 -0.0117795,-0.0866378 -0.054063,-0.099063 -0.0422835,-0.0124252 -0.0866378,0.0117795 -0.099063,0.054063l-0.108512 0.365846c-0.0124252,0.0422835 0.0117795,0.0866378 0.054063,0.099063 0.0422835,0.0124252 0.0866378,-0.0117795 0.099063,-0.054063l0.108512 -0.365846z"/><path class="fil0" d="M2.90804 4.04793c0.0312362,-0.0312362 0.0312362,-0.0818898 0,-0.113126 -0.0312362,-0.0312362 -0.0818898,-0.0312362 -0.113126,0l-0.288736 0.288732c-0.0312362,0.0312362 -0.0312362,0.0818898 0,0.113126 0.0312362,0.0312362 0.0818898,0.0312362 0.113126,0l0.288736 -0.288732z"/><path class="fil0" d="M5.93652 5.23374c-0.709417,0.512472 -1.4849,0.756276 -2.21904,0.738378 -0.742913,-0.0181102 -1.44243,-0.303673 -1.98823,-0.849472 -0.551067,-0.551067 -0.851398,-1.27374 -0.874453,-2.03516 -0.022378,-0.739098 0.216965,-1.51407 0.742417,-2.20259l-0.000145669 -0.000114173c0.0268031,-0.035122 0.0770079,-0.0418622 0.11213,-0.0150591 0.00334252,0.00255118 0.00642913,0.00531496 0.00925197,0.00825591l4.23168 4.23169 3.93701e-006 -3.93701e-006c0.0312402,0.0312402 0.0312402,0.0818937 0,0.113134 -0.00421654,0.00421654 -0.00879134,0.0078622 -0.013622,0.0109409zm-2.21529 0.579c0.67489,0.0164528 1.38841,-0.200567 2.04875,-0.656972l-4.10052 -4.10053c-0.46428,0.639492 -0.675803,1.35009 -0.65528,2.02787 0.021815,0.720425 0.306256,1.40446 0.828201,1.92641 0.516094,0.516098 1.17712,0.786114 1.87885,0.80322z"/><path class="fil0" d="M5.93122 5.23684c-0.569181,0.369563 -1.2276,0.493134 -1.87965,0.389634 -0.655114,-0.103992 -1.30306,-0.437169 -1.84601,-0.980126 -0.548307,-0.548303 -0.897224,-1.21835 -1.00775,-1.8903 -0.10826,-0.658185 0.0121496,-1.31808 0.397555,-1.86835l0.065311 0.045626 -0.0655276 -0.0458937c0.0253425,-0.036189 0.0752323,-0.0449764 0.111421,-0.0196339 0.00437008,0.00305906 0.00833465,0.00648031 0.0118937,0.010189l4.23168 4.23169 3.93701e-006 -3.93701e-006c0.0312402,0.0312402 0.0312402,0.0818937 0,0.113134 -0.00573228,0.00573228 -0.0121181,0.0104094 -0.0189213,0.0140394zm-1.85465 0.23213c0.583862,0.0926772 1.17287,-0.00792126 1.68952,-0.317094l-4.09332 -4.09332c-0.31785,0.497878 -0.414,1.08498 -0.317465,1.67187 0.105126,0.639114 0.438665,1.27809 0.963374,1.8028 0.518941,0.518945 1.13587,0.837012 1.75789,0.935748z"/></g><rect class="fil1" width="6.82666" height="6.82666"/><text x="0" y="21.82666" fill="#000000" font-size="5px" font-weight="bold" font-family="'Helvetica Neue', Helvetica, Arial-Unicode, Arial, Sans-serif">Created by IYIKON</text><text x="0" y="26.82666" fill="#000000" font-size="5px" font-weight="bold" font-family="'Helvetica Neue', Helvetica, Arial-Unicode, Arial, Sans-serif">from the Noun Project</text></svg>