<svg xmlns="http://www.w3.org/2000/svg" xmlns:xlink="http://www.w3.org/1999/xlink" xml:space="preserve" style="shape-rendering:geometricPrecision;text-rendering:geometricPrecision;image-rendering:optimizeQuality;" viewBox="0 0 6.82666 8.533325000000001" x="0px" y="0px" fill-rule="evenodd" clip-rule="evenodd"><defs><style type="text/css">
   
    .fil1 {fill:none}
    .fil0 {fill:black;fill-rule:nonzero}
   
  </style></defs><g><path class="fil0" d="M2.05191 2.50676l2.72285 0c0.0441811,0 0.08,0.0358189 0.08,0.08l0 0.332205c0,0.0441811 -0.0358189,0.08 -0.08,0.08l-2.72285 0c-0.0441811,0 -0.08,-0.0358189 -0.08,-0.08l0 -0.332205c0,-0.0441811 0.0358189,-0.08 0.08,-0.08zm2.64285 0.16l-2.56285 0 0 0.172205 2.56285 0 0 -0.172205z"/><path class="fil0" d="M2.19432 2.83896l2.43866 0c0.0441811,0 0.08,0.0358189 0.08,0.08 0,0.0059252 -0.000653543,0.0117008 -0.00187402,0.0172598l-0.103965 0.806795 -0.278374 2.16031 -0.079063 -0.01 0.0793425 0.0102244c-0.00522835,0.0405669 -0.0399803,0.0700945 -0.0798819,0.0697756l-1.6722 0c-0.0430787,0 -0.0782047,-0.0340591 -0.0799291,-0.0767126l-0.287642 -2.2322 -0.0947441 -0.735276 -0.00030315 3.93701e-005c-0.00564567,-0.0438189 0.0252992,-0.0839213 0.0691181,-0.0895669 0.00364961,-0.000472441 0.00727559,-0.000681102 0.0108583,-0.00065748zm2.348 0.16l-2.25797 0 0.0831693 0.645461 0.279488 2.16891 1.53266 0 0.269354 -2.09031 0.0933031 -0.724055z"/><path class="fil0" d="M2.27983 3.40837c-0.0441811,0 -0.08,0.0358189 -0.08,0.08 0,0.0441811 0.0358189,0.08 0.08,0.08l2.267 0c0.0441811,0 0.08,-0.0358189 0.08,-0.08 0,-0.0441811 -0.0358189,-0.08 -0.08,-0.08l-2.267 0z"/><path class="fil0" d="M2.45714 4.88343c-0.0441811,0 -0.08,0.0358189 -0.08,0.08 0,0.0441811 0.0358189,0.08 0.08,0.08l1.91239 0c0.0441811,0 0.08,-0.0358189 0.08,-0.08 0,-0.0441811 -0.0358189,-0.08 -0.08,-0.08l-1.91239 0z"/><path class="fil0" d="M3.98881 0.992705c0.0327913,-0.0295118 0.0354488,-0.0800197 0.00593701,-0.112811 -0.0295118,-0.0327913 -0.0800197,-0.0354488 -0.112811,-0.00593701l-0.687622 0.618606 -8.26772e-005 -9.05512e-005c-0.0213425,0.0192008 -0.0299409,0.0472795 -0.0252441,0.0736063l0.101378 1.02113c0.00431102,0.0438346 0.0433504,0.075874 0.087185,0.071563 0.0438346,-0.00431102 0.075874,-0.0433504 0.071563,-0.087185l-0.0980079 -0.987193 0.657705 -0.591689z"/></g><rect class="fil1" width="6.82666" height="6.82666"/><text x="0" y="21.82666" fill="#000000" font-size="5px" font-weight="bold" font-family="'Helvetica Neue', Helvetica, Arial-Unicode, Arial, Sans-serif">Created by IYIKON</text><text x="0" y="26.82666" fill="#000000" font-size="5px" font-weight="bold" font-family="'Helvetica Neue', Helvetica, Arial-Unicode, Arial, Sans-serif">from the Noun Project</text></svg>