<svg xmlns="http://www.w3.org/2000/svg" xmlns:xlink="http://www.w3.org/1999/xlink" xml:space="preserve" style="shape-rendering:geometricPrecision;text-rendering:geometricPrecision;image-rendering:optimizeQuality;" viewBox="0 0 6.82666 8.533325000000001" x="0px" y="0px" fill-rule="evenodd" clip-rule="evenodd"><defs><style type="text/css">
   
    .fil1 {fill:none}
    .fil0 {fill:black;fill-rule:nonzero}
   
  </style></defs><g><path class="fil0" d="M1.94075 3.47719c0.300272,0 0.57213,0.12172 0.768913,0.318504 0.196783,0.196783 0.318504,0.468642 0.318504,0.768913 0,0.300276 -0.12172,0.572134 -0.318504,0.768917 -0.196783,0.196783 -0.468642,0.318504 -0.768913,0.318504 -0.300276,0 -0.572134,-0.12172 -0.768917,-0.318504 -0.196783,-0.196783 -0.318504,-0.468642 -0.318504,-0.768917 0,-0.300276 0.12172,-0.572134 0.318504,-0.768913 0.196783,-0.196783 0.468642,-0.318504 0.768917,-0.318504zm0.655787 0.43163c-0.167823,-0.167823 -0.399685,-0.27163 -0.655787,-0.27163 -0.256106,0 -0.487969,0.103807 -0.655791,0.27163 -0.167823,0.167819 -0.27163,0.399681 -0.27163,0.655787 0,0.256106 0.103807,0.487969 0.27163,0.655791 0.167823,0.167823 0.399685,0.27163 0.655791,0.27163 0.256102,0 0.487965,-0.103807 0.655787,-0.27163 0.167823,-0.167823 0.27163,-0.399685 0.27163,-0.655791 0,-0.256102 -0.103807,-0.487965 -0.27163,-0.655787z"/><path class="fil0" d="M1.44644 4.34052c0.0101811,-0.0429724 -0.0164016,-0.0860669 -0.059374,-0.096248 -0.0429724,-0.0101811 -0.0860669,0.0164016 -0.096248,0.059374 -0.000641732,0.00270079 -0.234453,0.942559 0.676055,0.925205 0.0440079,-0.000688976 0.079126,-0.0369331 0.078437,-0.0809409 -0.000688976,-0.0440079 -0.0369331,-0.079126 -0.0809409,-0.078437 -0.702413,0.0133898 -0.518433,-0.726827 -0.517929,-0.728953z"/><path class="fil0" d="M1.79682 3.8505c-0.0234685,-0.0372756 -0.0727244,-0.0484685 -0.11,-0.025 -0.0372756,0.0234685 -0.0484685,0.0727244 -0.025,0.11 0.000279528,0.000448819 0.0960945,0.155862 0.37187,0.199713 0.0509252,0.00809449 0.108504,0.0125748 0.17335,0.0117087 0.0642008,-0.000858268 0.135028,-0.00687402 0.212921,-0.0197008 0.0434921,-0.0070748 0.0730157,-0.0480709 0.0659409,-0.091563 -0.0070748,-0.0434921 -0.0480709,-0.0730157 -0.091563,-0.0659409 -0.0707008,0.0116417 -0.133484,0.0170827 -0.189173,0.0178268 -0.0550354,0.00073622 -0.103661,-0.00302756 -0.146476,-0.00983465 -0.203689,-0.0323898 -0.261701,-0.126937 -0.26187,-0.127209z"/><path class="fil0" d="M3.43442 1.75937c0.034,-0.0281299 0.0387559,-0.0785 0.010626,-0.1125 -0.0281299,-0.034 -0.0785,-0.0387559 -0.1125,-0.010626 -0.00382283,0.00316142 -1.33435,1.08962 -1.36604,2.41834 -0.0010315,0.0440079 0.0338071,0.0805315 0.077815,0.081563 0.0440079,0.0010315 0.0805315,-0.0338071 0.081563,-0.077815 0.0299213,-1.25467 1.30487,-2.29593 1.30854,-2.29896z"/><path class="fil0" d="M4.88591 3.63719c-0.256102,0 -0.487965,0.103807 -0.655787,0.27163 -0.167823,0.167823 -0.27163,0.399685 -0.27163,0.655787 0,0.256106 0.103807,0.487969 0.27163,0.655791 0.167823,0.167823 0.399685,0.27163 0.655787,0.27163 0.256106,0 0.487969,-0.103807 0.655791,-0.27163 0.167823,-0.167823 0.27163,-0.399685 0.27163,-0.655791 0,-0.256106 -0.103807,-0.487969 -0.27163,-0.655787 -0.167823,-0.167823 -0.399685,-0.27163 -0.655791,-0.27163zm-0.768913 0.158504c0.196783,-0.196783 0.468642,-0.318504 0.768913,-0.318504 0.300276,0 0.572134,0.12172 0.768917,0.318504 0.196783,0.19678 0.318504,0.468638 0.318504,0.768913 0,0.300276 -0.12172,0.572134 -0.318504,0.768917 -0.196783,0.196783 -0.468642,0.318504 -0.768917,0.318504 -0.300272,0 -0.57213,-0.12172 -0.768913,-0.318504 -0.196783,-0.196783 -0.318504,-0.468642 -0.318504,-0.768917 0,-0.300272 0.12172,-0.57213 0.318504,-0.768913z"/><path class="fil0" d="M5.53584 4.30365c-0.0101811,-0.0429724 -0.0532756,-0.0695551 -0.096248,-0.059374 -0.0429724,0.0101811 -0.0695551,0.0532756 -0.059374,0.096248 0.000503937,0.00212598 0.184484,0.742343 -0.517929,0.728953 -0.0440079,-0.000688976 -0.080252,0.0344291 -0.0809409,0.078437 -0.000688976,0.0440079 0.0344291,0.080252 0.078437,0.0809409 0.910508,0.0173543 0.676697,-0.922504 0.676055,-0.925205z"/><path class="fil0" d="M5.16484 3.9355c0.0234685,-0.0372756 0.0122756,-0.0865315 -0.025,-0.11 -0.0372756,-0.0234685 -0.0865315,-0.0122756 -0.11,0.025 -0.000169291,0.000271654 -0.0581811,0.0948189 -0.26187,0.127209 -0.042815,0.00680709 -0.0914409,0.0105709 -0.146476,0.00983465 -0.055689,-0.000744094 -0.118472,-0.00618504 -0.189173,-0.0178268 -0.0434921,-0.0070748 -0.0844882,0.0224488 -0.091563,0.0659409 -0.0070748,0.0434921 0.0224488,0.0844882 0.0659409,0.091563 0.0778937,0.0128268 0.14872,0.0188425 0.212921,0.0197008 0.0648465,0.000866142 0.122425,-0.00361417 0.17335,-0.0117087 0.275776,-0.0438504 0.371591,-0.199264 0.37187,-0.199713z"/><path class="fil0" d="M3.49412 1.63624c-0.034,-0.0281299 -0.0843701,-0.023374 -0.1125,0.010626 -0.0281299,0.034 -0.023374,0.0843701 0.010626,0.1125 0.00366535,0.00302756 1.27862,1.04429 1.30854,2.29896 0.0010315,0.0440079 0.0375551,0.0788465 0.081563,0.077815 0.0440079,-0.0010315 0.0788465,-0.0375551 0.077815,-0.081563 -0.031689,-1.32872 -1.36222,-2.41518 -1.36604,-2.41834z"/><path class="fil0" d="M2.11823 1.17463l2.5902 0c0.0441811,0 0.08,0.0358189 0.08,0.08l0 0.402378c0,0.0441811 -0.0358189,0.08 -0.08,0.08l-2.5902 0c-0.0441811,0 -0.08,-0.0358189 -0.08,-0.08l0 -0.402378c0,-0.0441811 0.0358189,-0.08 0.08,-0.08zm2.5102 0.16l-2.4302 0 0 0.242378 2.4302 0 0 -0.242378z"/></g><rect class="fil1" width="6.82666" height="6.82666"/><text x="0" y="21.82666" fill="#000000" font-size="5px" font-weight="bold" font-family="'Helvetica Neue', Helvetica, Arial-Unicode, Arial, Sans-serif">Created by IYIKON</text><text x="0" y="26.82666" fill="#000000" font-size="5px" font-weight="bold" font-family="'Helvetica Neue', Helvetica, Arial-Unicode, Arial, Sans-serif">from the Noun Project</text></svg>