<svg xmlns="http://www.w3.org/2000/svg" xmlns:xlink="http://www.w3.org/1999/xlink" xml:space="preserve" style="shape-rendering:geometricPrecision;text-rendering:geometricPrecision;image-rendering:optimizeQuality;" viewBox="0 0 6.82666 8.533325000000001" x="0px" y="0px" fill-rule="evenodd" clip-rule="evenodd"><defs><style type="text/css">
   
    .fil1 {fill:none}
    .fil0 {fill:black;fill-rule:nonzero}
   
  </style></defs><g><path class="fil0" d="M2.84721 1.81287c0.165433,0 0.315343,0.0669843 0.423976,0.175272 0.108776,0.108433 0.176063,0.258047 0.176063,0.423122 0,0.165079 -0.0672874,0.314693 -0.176063,0.423126 -0.108634,0.108287 -0.258543,0.175272 -0.423976,0.175272 -0.165433,0 -0.315346,-0.0669843 -0.42398,-0.175272 -0.108776,-0.108433 -0.176063,-0.258047 -0.176063,-0.423126 0,-0.165075 0.0672874,-0.314689 0.176067,-0.423122 0.10863,-0.108287 0.258543,-0.175272 0.423976,-0.175272zm0.311472 0.288398c-0.0795787,-0.0793268 -0.189697,-0.128398 -0.311472,-0.128398 -0.12178,0 -0.231894,0.0490709 -0.311472,0.128398 -0.0794331,0.0791811 -0.128571,0.188776 -0.128571,0.309996 0,0.121224 0.0491378,0.230819 0.128567,0.31 0.0795787,0.0793268 0.189701,0.128398 0.311476,0.128398 0.121776,0 0.231894,-0.0490709 0.311472,-0.128398 0.0794291,-0.0791811 0.128567,-0.188776 0.128567,-0.31 0,-0.12122 -0.0491378,-0.230815 -0.128567,-0.309996z"/><path class="fil0" d="M3.97944 1.81287c0.165433,0 0.315346,0.0669843 0.423976,0.175272 0.10878,0.108433 0.176067,0.258047 0.176067,0.423122 0,0.165079 -0.0672874,0.314693 -0.176063,0.423126 -0.108634,0.108287 -0.258547,0.175272 -0.42398,0.175272 -0.165433,0 -0.315343,-0.0669843 -0.423976,-0.175272 -0.108776,-0.108433 -0.176063,-0.258047 -0.176063,-0.423126 0,-0.165075 0.0672874,-0.314689 0.176063,-0.423122 0.108634,-0.108287 0.258543,-0.175272 0.423976,-0.175272zm0.311472 0.288398c-0.0795787,-0.0793268 -0.189693,-0.128398 -0.311472,-0.128398 -0.121776,0 -0.231894,0.0490709 -0.311472,0.128398 -0.0794291,0.0791811 -0.128567,0.188776 -0.128567,0.309996 0,0.121224 0.0491378,0.230819 0.128567,0.31 0.0795787,0.0793268 0.189697,0.128398 0.311472,0.128398 0.121776,0 0.231898,-0.0490709 0.311476,-0.128398 0.0794291,-0.0791811 0.128567,-0.188776 0.128567,-0.31 0,-0.12122 -0.0491378,-0.230815 -0.128571,-0.309996z"/><path class="fil0" d="M2.28108 2.80517c0.165429,0 0.315346,0.0669843 0.423976,0.175272 0.10878,0.108433 0.176067,0.258047 0.176067,0.423122 0,0.165079 -0.0672874,0.314693 -0.176063,0.423126 -0.108634,0.108287 -0.258547,0.175272 -0.42398,0.175272 -0.165433,0 -0.315343,-0.0669843 -0.423976,-0.175272 -0.108776,-0.108433 -0.176063,-0.258047 -0.176063,-0.423126 0,-0.165075 0.0672874,-0.314689 0.176063,-0.423122 0.108634,-0.108287 0.258543,-0.175272 0.423976,-0.175272zm0.311472 0.288398c-0.0795787,-0.0793268 -0.189693,-0.128398 -0.311472,-0.128398 -0.121776,0 -0.231894,0.0490709 -0.311472,0.128398 -0.0794291,0.0791811 -0.128567,0.188776 -0.128567,0.309996 0,0.121224 0.0491378,0.230819 0.128567,0.31 0.0795787,0.0793268 0.189697,0.128398 0.311472,0.128398 0.12178,0 0.231898,-0.0490709 0.311476,-0.128398 0.0794291,-0.0791811 0.128567,-0.188776 0.128567,-0.31 0,-0.12122 -0.0491378,-0.230815 -0.128571,-0.309996z"/><path class="fil0" d="M3.41333 2.80517c0.165433,0 0.315343,0.0669843 0.423976,0.175272 0.108776,0.108433 0.176063,0.258047 0.176063,0.423122 0,0.165079 -0.0672874,0.314693 -0.176063,0.423126 -0.108634,0.108287 -0.258543,0.175272 -0.423976,0.175272 -0.165433,0 -0.315346,-0.0669843 -0.423976,-0.175272 -0.10878,-0.108433 -0.176067,-0.258047 -0.176067,-0.423126 0,-0.165075 0.0672874,-0.314689 0.176067,-0.423122 0.10863,-0.108287 0.258543,-0.175272 0.423976,-0.175272zm0.311472 0.288398c-0.0795787,-0.0793268 -0.189697,-0.128398 -0.311472,-0.128398 -0.12178,0 -0.231894,0.0490709 -0.311472,0.128398 -0.0794331,0.0791811 -0.128571,0.188776 -0.128571,0.309996 0,0.12122 0.0491378,0.230819 0.128571,0.31 0.0795787,0.0793268 0.189693,0.128398 0.311472,0.128398 0.121776,0 0.231894,-0.0490709 0.311472,-0.128398 0.0794291,-0.0791811 0.128567,-0.188776 0.128567,-0.31 0,-0.12122 -0.0491378,-0.230815 -0.128567,-0.309996z"/><path class="fil0" d="M4.54557 2.80517c0.165433,0 0.315346,0.0669843 0.423976,0.175272 0.10878,0.108433 0.176067,0.258047 0.176067,0.423122 0,0.165079 -0.0672874,0.314693 -0.176067,0.423126 -0.10863,0.108287 -0.258543,0.175272 -0.423976,0.175272 -0.165429,0 -0.315346,-0.0669843 -0.423976,-0.175272 -0.10878,-0.108433 -0.176067,-0.258047 -0.176067,-0.423126 0,-0.165075 0.0672874,-0.314689 0.176067,-0.423122 0.10863,-0.108287 0.258547,-0.175272 0.423976,-0.175272zm0.311472 0.288398c-0.0795787,-0.0793268 -0.189693,-0.128398 -0.311472,-0.128398 -0.12178,0 -0.231894,0.0490709 -0.311472,0.128398 -0.0794331,0.0791811 -0.128571,0.188776 -0.128571,0.309996 0,0.12122 0.0491378,0.230819 0.128571,0.31 0.0795787,0.0793268 0.189693,0.128398 0.311472,0.128398 0.12178,0 0.231894,-0.0490709 0.311472,-0.128398 0.0794331,-0.0791811 0.128571,-0.18878 0.128571,-0.31 0,-0.12122 -0.0491378,-0.230815 -0.128571,-0.309996z"/><path class="fil0" d="M3.41333 4.77654c0.165433,0 0.315343,0.0669843 0.423976,0.175272 0.108776,0.108433 0.176063,0.258047 0.176063,0.423126 0,0.165075 -0.0672874,0.314689 -0.176063,0.423122 -0.108634,0.108287 -0.258543,0.175272 -0.423976,0.175272 -0.165433,0 -0.315346,-0.0669843 -0.423976,-0.175272 -0.10878,-0.108433 -0.176067,-0.258047 -0.176067,-0.423122 0,-0.165079 0.0672874,-0.314689 0.176067,-0.423126 0.10863,-0.108287 0.258543,-0.175272 0.423976,-0.175272zm0.311472 0.288398c-0.0795787,-0.0793268 -0.189697,-0.128398 -0.311472,-0.128398 -0.12178,0 -0.231894,0.0490709 -0.311472,0.128398 -0.0794331,0.0791811 -0.128571,0.188776 -0.128571,0.31 0,0.12122 0.0491378,0.230815 0.128571,0.309996 0.0795787,0.0793268 0.189693,0.128398 0.311472,0.128398 0.121776,0 0.231894,-0.0490709 0.311472,-0.128398 0.0794291,-0.0791811 0.128567,-0.188776 0.128567,-0.309996 0,-0.121224 -0.0491378,-0.230819 -0.128567,-0.31z"/><path class="fil0" d="M2.84721 3.7927c0.165433,0 0.315343,0.0669843 0.423976,0.175272 0.108776,0.108433 0.176063,0.258047 0.176063,0.423122 0,0.165075 -0.0672874,0.314693 -0.176063,0.423126 -0.108634,0.108287 -0.258543,0.175272 -0.423976,0.175272 -0.165433,0 -0.315346,-0.0669843 -0.423976,-0.175272 -0.10878,-0.108433 -0.176067,-0.258051 -0.176067,-0.423126 0,-0.165075 0.0672874,-0.314685 0.176067,-0.423122 0.10863,-0.108287 0.258543,-0.175272 0.423976,-0.175272zm0.311472 0.288398c-0.0795787,-0.0793268 -0.189697,-0.128398 -0.311472,-0.128398 -0.12178,0 -0.231894,0.0490709 -0.311472,0.128398 -0.0794331,0.0791811 -0.128571,0.188776 -0.128571,0.309996 0,0.12122 0.0491378,0.230819 0.128571,0.31 0.0795787,0.0793268 0.189693,0.128398 0.311472,0.128398 0.121776,0 0.231894,-0.0490709 0.311472,-0.128398 0.0794291,-0.0791811 0.128567,-0.18878 0.128567,-0.31 0,-0.12122 -0.0491378,-0.230815 -0.128567,-0.309996z"/><path class="fil0" d="M3.97944 3.7927c0.165433,0 0.315346,0.0669843 0.423976,0.175272 0.10878,0.108437 0.176067,0.258047 0.176067,0.423122 0,0.165075 -0.0672874,0.314693 -0.176067,0.423126 -0.10863,0.108287 -0.258543,0.175272 -0.423976,0.175272 -0.165433,0 -0.315343,-0.0669843 -0.423976,-0.175272 -0.108776,-0.108433 -0.176063,-0.258051 -0.176063,-0.423126 0,-0.165075 0.0672874,-0.314689 0.176063,-0.423122 0.108634,-0.108287 0.258543,-0.175272 0.423976,-0.175272zm0.311472 0.288398c-0.0795787,-0.0793268 -0.189693,-0.128398 -0.311472,-0.128398 -0.121776,0 -0.231894,0.0490709 -0.311472,0.128398 -0.0794291,0.0791811 -0.128567,0.188776 -0.128567,0.309996 0,0.12122 0.0491378,0.230819 0.128567,0.31 0.0795787,0.0793268 0.189697,0.128398 0.311472,0.128398 0.12178,0 0.231894,-0.0490709 0.311472,-0.128398 0.0794331,-0.0791811 0.128571,-0.18878 0.128571,-0.31 0,-0.12122 -0.0491378,-0.230815 -0.128571,-0.309996z"/><path class="fil0" d="M2.66036 0.900142c-0.0440079,-0.00362205 -0.0826299,0.0291181 -0.086252,0.073126 -0.00362205,0.0440079 0.0291181,0.0826299 0.073126,0.086252 0.00226378,0.000188976 0.792709,0.0539252 0.680681,1.25266 -0.0039685,0.0438346 0.0283504,0.0825945 0.072185,0.086563 0.0438346,0.0039685 0.0825945,-0.0283504 0.086563,-0.072185 0.127165,-1.36072 -0.823579,-1.42619 -0.826303,-1.42642z"/><path class="fil0" d="M3.94547 1.01616c0.0438346,0.00431102 0.082874,-0.0277283 0.087185,-0.071563 0.00431102,-0.0438346 -0.0277283,-0.082874 -0.071563,-0.087185 -0.00264173,-0.000259843 -0.923598,-0.10013 -0.704091,0.719087 0.0113898,0.0426299 0.055185,0.0679528 0.097815,0.056563 0.0426299,-0.0113898 0.0679528,-0.055185 0.056563,-0.097815 -0.159165,-0.594012 0.53211,-0.51928 0.534091,-0.519087z"/><path class="fil0" d="M4.03265 0.928976c-0.00431102,-0.0438346 -0.0433504,-0.075874 -0.087185,-0.071563 -0.0438346,0.00431102 -0.075874,0.0433504 -0.071563,0.087185 0.000192913,0.00198031 0.0749252,0.693256 -0.519091,0.534087 -0.0426299,-0.0113898 -0.0864252,0.0139331 -0.097815,0.056563 -0.0113898,0.0426299 0.0139331,0.0864252 0.056563,0.097815 0.819217,0.219512 0.71935,-0.701445 0.719091,-0.704087z"/></g><rect class="fil1" width="6.82666" height="6.82666"/><text x="0" y="21.82666" fill="#000000" font-size="5px" font-weight="bold" font-family="'Helvetica Neue', Helvetica, Arial-Unicode, Arial, Sans-serif">Created by IYIKON</text><text x="0" y="26.82666" fill="#000000" font-size="5px" font-weight="bold" font-family="'Helvetica Neue', Helvetica, Arial-Unicode, Arial, Sans-serif">from the Noun Project</text></svg>