<svg xmlns="http://www.w3.org/2000/svg" xmlns:xlink="http://www.w3.org/1999/xlink" xml:space="preserve" style="shape-rendering:geometricPrecision;text-rendering:geometricPrecision;image-rendering:optimizeQuality;" viewBox="0 0 6.82666 8.533325000000001" x="0px" y="0px" fill-rule="evenodd" clip-rule="evenodd"><defs><style type="text/css">
   
    .fil1 {fill:none}
    .fil0 {fill:black;fill-rule:nonzero}
   
  </style></defs><g><path class="fil0" d="M2.28337 2.52164l2.25689 0c0.138224,0 0.263831,0.0564921 0.354835,0.1475 0.0910079,0.0910039 0.1475,0.216614 0.1475,0.354839l0 0.778701c0,0.138224 -0.0564882,0.263831 -0.147496,0.354839 -0.0910079,0.0910039 -0.216614,0.147496 -0.354839,0.147496l-2.25689 0c-0.138224,0 -0.263835,-0.0564921 -0.354839,-0.1475 -0.0910079,-0.0910039 -0.1475,-0.21661 -0.1475,-0.354835l0 -0.778701c0,-0.138224 0.0564921,-0.263835 0.1475,-0.354839 0.0910039,-0.0910079 0.216614,-0.1475 0.354839,-0.1475zm2.25689 0.16l-2.25689 0c-0.0940551,0 -0.17963,0.0385394 -0.241713,0.100626 -0.0620866,0.0620827 -0.100626,0.147657 -0.100626,0.241713l0 0.778701c0,0.0940551 0.0385394,0.179626 0.100626,0.241709 0.0620827,0.0620866 0.147657,0.100626 0.241713,0.100626l2.25689 0c0.0940551,0 0.179626,-0.0385394 0.241713,-0.100622 0.0620827,-0.0620827 0.100622,-0.147657 0.100622,-0.241713l0 -0.778701c0,-0.0940551 -0.0385394,-0.17963 -0.100626,-0.241713 -0.0620827,-0.0620866 -0.147654,-0.100626 -0.241709,-0.100626z"/><polygon class="fil0" points="2.87992,2.65383 1.92134,3.76156 1.80072,3.65718 2.7593,2.54946 "/><polygon class="fil0" points="3.42982,2.65383 2.09531,4.19597 1.97469,4.09159 3.3092,2.54946 "/><polygon class="fil0" points="3.97972,2.65383 2.57491,4.2772 2.45429,4.17283 3.85909,2.54946 "/><polygon class="fil0" points="4.52961,2.65383 3.12481,4.2772 3.00419,4.17283 4.40899,2.54946 "/><polygon class="fil0" points="4.93522,2.82056 3.6747,4.2772 3.55408,4.17283 4.8146,2.71619 "/><polygon class="fil0" points="5.02291,3.29887 4.17647,4.277 4.05585,4.17263 4.90228,3.1945 "/><path class="fil0" d="M1.82429 3.194c0.0390039,0.0207087 0.0874173,0.00587795 0.108126,-0.033126 0.0207087,-0.0390039 0.00587795,-0.0874173 -0.033126,-0.108126 -0.00280709,-0.00148819 -0.973937,-0.522339 -1.042,-0.0572205 -0.000338583,0.00157087 -0.000720472,0.00348819 -0.00111024,0.00570472l-0.000129921 -1.5748e-005 -0.000259843 0.00232677c-0.00459055,0.0285394 -0.00818898,0.0978386 0.0505512,0.150071 -0.107303,0.0847717 -0.17813,0.21478 0.160303,0.325791 0.041937,0.0136339 0.0869921,-0.00931102 0.100626,-0.051248 0.0136339,-0.041937 -0.00931102,-0.0869921 -0.051248,-0.100626 -0.136543,-0.0447874 -0.0226102,-0.104059 0.0025315,-0.11589 0.0284764,-0.0103228 0.0498307,-0.0364488 0.0525039,-0.0686102 0.00366142,-0.0440276 -0.0290669,-0.0826929 -0.0730945,-0.0863543l-0.00662992 0.0797244 0.00656299 -0.079689c-0.0762953,-0.00634252 -0.0848661,-0.0191378 -0.0856181,-0.0231811 0.00111811,-0.0038937 0.00196063,-0.0079252 0.00248819,-0.0120709l-0.0793583 -0.010122 0.079063 0.01c0.0310669,-0.24361 0.807587,0.171476 0.809815,0.172661z"/><path class="fil0" d="M1.89929 3.75419c0.0390039,-0.0207087 0.0538346,-0.069122 0.033126,-0.108126 -0.0207087,-0.0390039 -0.069122,-0.0538346 -0.108126,-0.033126 -0.00222835,0.00118504 -0.778748,0.416272 -0.809815,0.172661l-0.079063 0.01 0.0793583 -0.010122c-0.000527559,-0.00414567 -0.00137008,-0.00817717 -0.00248819,-0.0120709 0.000751969,-0.00404331 0.00932283,-0.0168386 0.0856181,-0.0231811l-0.00656299 -0.079689 0.00662992 0.0797244c0.0440276,-0.00366142 0.0767559,-0.0423268 0.0730945,-0.0863543 -0.00267323,-0.0321614 -0.0240276,-0.0582874 -0.0525039,-0.0686102 -0.0251417,-0.0118307 -0.139075,-0.0711024 -0.0025315,-0.11589 0.041937,-0.0136339 0.0648819,-0.058689 0.051248,-0.100626 -0.0136339,-0.041937 -0.058689,-0.0648819 -0.100626,-0.051248 -0.338433,0.111012 -0.267606,0.24102 -0.160303,0.325791 -0.0587402,0.0522323 -0.0551417,0.121531 -0.0505512,0.150071l0.000259843 0.00232677 0.000129921 -1.5748e-005c0.000385827,0.0022126 0.000767717,0.00412992 0.00111024,0.00570472 0.0680591,0.465122 1.03919,-0.0557323 1.042,-0.0572205z"/><path class="fil0" d="M4.92737 3.05275c-0.0390039,0.0207087 -0.0538346,0.069122 -0.033126,0.108126 0.0207087,0.0390039 0.069122,0.0538346 0.108126,0.033126 0.00222835,-0.00118504 0.778748,-0.416272 0.809815,-0.172661l0.079063 -0.01 -0.0793583 0.010122c0.000527559,0.00414567 0.00137008,0.00817717 0.00248819,0.0120709 -0.000751969,0.00404331 -0.00932283,0.0168386 -0.085622,0.0231811l0.00656299 0.079689 -0.00662992 -0.0797244c-0.0440276,0.00366142 -0.0767559,0.0423268 -0.0730945,0.0863543 0.00267323,0.0321614 0.0240276,0.0582874 0.0525039,0.0686102 0.0251417,0.0118307 0.139075,0.0711024 0.0025315,0.11589 -0.041937,0.0136339 -0.0648819,0.058689 -0.051248,0.100626 0.0136339,0.041937 0.058689,0.0648819 0.100626,0.051248 0.338429,-0.111012 0.267602,-0.24102 0.160303,-0.325791 0.0587441,-0.0522283 0.0551457,-0.121531 0.0505551,-0.150071l-0.000259843 -0.00232677 -0.000129921 1.5748e-005c-0.000385827,-0.0022126 -0.000767717,-0.00412992 -0.00111024,-0.00570472 -0.0680591,-0.465118 -1.03919,0.0557323 -1.042,0.0572205z"/><path class="fil0" d="M5.00237 3.61294c-0.0390039,-0.0207087 -0.0874173,-0.00587795 -0.108126,0.033126 -0.0207087,0.0390039 -0.00587795,0.0874173 0.033126,0.108126 0.00280709,0.00148819 0.973937,0.522343 1.042,0.0572205 0.000338583,-0.00157087 0.000720472,-0.00348819 0.00111024,-0.00570472l0.000129921 1.5748e-005 0.000259843 -0.00232677c0.00459055,-0.0285394 0.00818898,-0.0978425 -0.0505551,-0.150071 0.107299,-0.0847717 0.178126,-0.21478 -0.160303,-0.325791 -0.041937,-0.0136339 -0.0869921,0.00931102 -0.100626,0.051248 -0.0136339,0.041937 0.00931102,0.0869921 0.051248,0.100626 0.136543,0.0447874 0.0226102,0.104059 -0.0025315,0.11589 -0.0284764,0.0103228 -0.0498307,0.0364488 -0.0525039,0.0686102 -0.00366142,0.0440276 0.0290669,0.0826929 0.0730945,0.0863543l0.00662992 -0.0797244 -0.00656299 0.079689c0.0762992,0.00634252 0.0848701,0.0191378 0.085622,0.0231811 -0.00111811,0.0038937 -0.00196063,0.0079252 -0.00248819,0.0120709l0.0793583 0.010122 -0.079063 -0.01c-0.0310669,0.24361 -0.807587,-0.171476 -0.809815,-0.172661z"/></g><rect class="fil1" width="6.82666" height="6.82666"/><text x="0" y="21.82666" fill="#000000" font-size="5px" font-weight="bold" font-family="'Helvetica Neue', Helvetica, Arial-Unicode, Arial, Sans-serif">Created by IYIKON</text><text x="0" y="26.82666" fill="#000000" font-size="5px" font-weight="bold" font-family="'Helvetica Neue', Helvetica, Arial-Unicode, Arial, Sans-serif">from the Noun Project</text></svg>