<svg xmlns="http://www.w3.org/2000/svg" xmlns:xlink="http://www.w3.org/1999/xlink" xml:space="preserve" style="shape-rendering:geometricPrecision;text-rendering:geometricPrecision;image-rendering:optimizeQuality;" viewBox="0 0 6.82666 8.533325000000001" x="0px" y="0px" fill-rule="evenodd" clip-rule="evenodd"><defs><style type="text/css">
   
    .fil1 {fill:none}
    .fil0 {fill:black;fill-rule:nonzero}
   
  </style></defs><g><path class="fil0" d="M2.13554 4.23665c-0.00879921,-0.0431457 -0.0509173,-0.0709882 -0.094063,-0.062189 -0.0431457,0.00879921 -0.0709882,0.0509173 -0.062189,0.094063 0.00146457,0.00718504 0.474449,2.52306 3.9478,0.906689 0.0400394,-0.0186378 0.0573858,-0.0662126 0.038748,-0.106252 -0.0186378,-0.0400394 -0.0662126,-0.0573858 -0.106252,-0.038748 -3.28812,1.53017 -3.72269,-0.786945 -3.72404,-0.793563z"/><path class="fil0" d="M3.21383 2.13014c-0.0417638,0.0139764 -0.0642913,0.0591732 -0.050315,0.100937 0.0139764,0.0417638 0.0591732,0.0642913 0.100937,0.050315 0.00640551,-0.0021378 2.23032,-0.784323 2.54919,2.82819 0.00379528,0.0440079 0.0425551,0.0766102 0.086563,0.072815 0.0440079,-0.00379528 0.0766102,-0.0425551 0.072815,-0.086563 -0.336866,-3.81637 -2.75223,-2.96802 -2.75919,-2.9657z"/><path class="fil0" d="M2.25646 3.04938c0.0414213,-0.0153583 0.0625472,-0.0613898 0.047189,-0.102811 -0.0153583,-0.0414213 -0.0613898,-0.0625472 -0.102811,-0.047189 -0.00198425,0.00073622 -0.688803,0.266319 -1.04949,-0.619744 -0.0165669,-0.0409016 -0.0631614,-0.0606299 -0.104063,-0.044063 -0.0409016,0.0165669 -0.0606299,0.0631614 -0.044063,0.104063 0.419874,1.03146 1.25084,0.710634 1.25324,0.709744z"/><path class="fil0" d="M2.14989 2.98782c0.00741732,0.0434921 0.0486969,0.0727323 0.092189,0.065315 0.0434921,-0.00741732 0.0727323,-0.0486969 0.065315,-0.092189 -0.000429134,-0.00251969 -0.138051,-0.882398 -1.24074,-0.73037 -0.0436614,0.00586614 -0.0743031,0.0460276 -0.068437,0.089689 0.00586614,0.0436614 0.0460276,0.0743031 0.089689,0.068437 0.948213,-0.130732 1.06163,0.597031 1.06199,0.599118z"/><path class="fil0" d="M2.3074 2.96094c-0.00741732,-0.0434921 -0.0486969,-0.0727323 -0.092189,-0.065315 -0.0434921,0.00741732 -0.0727323,0.0486969 -0.065315,0.092189 0.000429134,0.00251969 0.138051,0.882398 1.24074,0.730366 0.0436614,-0.00586614 0.0743031,-0.0460276 0.068437,-0.089689 -0.00586614,-0.0436614 -0.0460276,-0.0743031 -0.089689,-0.068437 -0.948213,0.130732 -1.06163,-0.597028 -1.06199,-0.599114z"/><path class="fil0" d="M2.20083 2.89938c-0.0414213,0.0153583 -0.0625472,0.0613898 -0.047189,0.102811 0.0153583,0.0414213 0.0613898,0.0625472 0.102811,0.047189 0.00198425,-0.00073622 0.688803,-0.266319 1.04949,0.61974 0.0165669,0.0409016 0.0631614,0.0606299 0.104063,0.044063 0.0409016,-0.0165669 0.0606299,-0.0631614 0.044063,-0.104063 -0.419878,-1.03146 -1.25084,-0.71063 -1.25324,-0.70974z"/><path class="fil0" d="M2.14896 3.22184c0.0440079,-0.00327559 0.0770276,-0.0416181 0.073752,-0.085626 -0.00327559,-0.0440079 -0.0416181,-0.0770276 -0.085626,-0.073752 -0.833236,0.0624685 -1.27464,1.23046 -1.27838,1.24031l-7.48031e-005 -2.75591e-005c-0.0158189,0.041252 0.00479921,0.0875236 0.0460512,0.103343 0.0169449,0.00649606 0.0347323,0.00684252 0.0509134,0.00214173 0.0649528,-0.0134016 0.50578,-0.118484 0.887594,-0.569953 0.0284764,-0.0336535 0.0242795,-0.0840236 -0.00937402,-0.1125 -0.0336535,-0.0284764 -0.0840236,-0.0242795 -0.1125,0.00937402 -0.234398,0.277161 -0.488075,0.409949 -0.646012,0.470685 0.14352,-0.30102 0.513043,-0.941969 1.07365,-0.983996z"/><path class="fil0" d="M2.2149 3.10746c-0.0191575,-0.0396929 -0.0668701,-0.0563425 -0.106563,-0.037185 -0.0396929,0.0191575 -0.0563425,0.0668701 -0.037185,0.106563 0.243114,0.504862 -0.113457,1.1478 -0.298807,1.4276 -0.0260118,-0.167957 -0.0368031,-0.452354 0.0849134,-0.79085 0.0148386,-0.0414213 -0.00670472,-0.0870354 -0.048126,-0.101874 -0.0414213,-0.0148386 -0.0870354,0.00670472 -0.101874,0.048126 -0.203992,0.567303 -0.0660669,1.00665 -0.0492047,1.05624 0.00445276,0.015748 0.0137559,0.0302756 0.027622,0.0411417 0.0347756,0.027248 0.0850669,0.0211457 0.112315,-0.0136299l-0.0629724 -0.0493425 0.062811 0.049063c0.00222047,-0.00283858 0.78015,-0.98185 0.417071,-1.73585z"/><path class="fil0" d="M2.24841 2.86981c0.0191575,0.0396929 0.0668701,0.0563425 0.106563,0.037185 0.0396929,-0.0191575 0.0563425,-0.0668701 0.037185,-0.106563 -0.243902,-0.506508 0.126264,-1.14691 0.31524,-1.42182 0.0264567,0.167417 0.0384094,0.453697 -0.0842874,0.794917 -0.0148386,0.0414213 0.00670472,0.0870354 0.048126,0.101874 0.0414213,0.0148386 0.0870354,-0.00670472 0.101874,-0.048126 0.203898,-0.567047 0.066189,-1.00626 0.0492244,-1.05617 -0.00432677,-0.0153543 -0.0132717,-0.0295748 -0.0266102,-0.0403858 -0.0343228,-0.0278189 -0.0847047,-0.0225472 -0.112524,0.0117756l0.00019685 0.000161417c-0.00513386,0.00629134 -0.797815,0.973669 -0.434988,1.72715z"/><path class="fil0" d="M2.31435 2.75544c-0.0440079,0.00327559 -0.0770276,0.0416181 -0.073752,0.085626 0.00327559,0.0440079 0.0416181,0.0770276 0.085626,0.073752 0.833976,-0.0625197 1.29294,-1.22454 1.29486,-1.22935l0.000192913 7.87402e-005c0.0164606,-0.041 -0.00343307,-0.0875866 -0.0444331,-0.104047 -0.0172638,-0.00693307 -0.0355197,-0.00741732 -0.0520984,-0.00259449 -0.0650354,0.0134252 -0.505803,0.118543 -0.887571,0.569949 -0.0284764,0.0336535 -0.0242795,0.0840236 0.00937402,0.1125 0.0336535,0.0284764 0.0840236,0.0242795 0.1125,-0.00937402 0.232594,-0.275028 0.484142,-0.40787 0.642315,-0.469244 -0.149488,0.300213 -0.528,0.930799 -1.08702,0.972709z"/><path class="fil0" d="M3.26061 3.94865c-0.0201929,-0.0391772 -0.0683228,-0.0545669 -0.1075,-0.034374 -0.0391772,0.0201929 -0.0545669,0.0683228 -0.034374,0.1075 0.00111024,0.00215354 0.383122,0.755823 0.756043,0.38289 0.0312362,-0.0312362 0.0312362,-0.0818898 0,-0.113126 -0.0312362,-0.0312362 -0.0818898,-0.0312362 -0.113126,0 -0.216449,0.216457 -0.50022,-0.341295 -0.501043,-0.34289z"/><path class="fil0" d="M3.18592 3.90552c-0.0440079,0.00207087 -0.0780079,0.0394331 -0.075937,0.0834409 0.00207087,0.0440079 0.0394331,0.0780079 0.0834409,0.075937 0.00179134,-8.66142e-005 0.626882,-0.0332992 0.547602,0.262575 -0.0113898,0.0426299 0.0139331,0.0864252 0.056563,0.097815 0.0426299,0.0113898 0.0864252,-0.0139331 0.097815,-0.056563 0.136445,-0.509217 -0.707063,-0.463319 -0.709484,-0.463205z"/><path class="fil0" d="M3.77159 3.48608c-0.0201929,-0.0391772 -0.0683228,-0.0545669 -0.1075,-0.034374 -0.0391772,0.0201929 -0.0545669,0.0683228 -0.034374,0.1075 0.00111024,0.00215354 0.383126,0.755815 0.756043,0.38289 0.0312362,-0.0312362 0.0312362,-0.0818898 0,-0.113126 -0.0312362,-0.0312362 -0.0818898,-0.0312362 -0.113126,0 -0.216445,0.216449 -0.50022,-0.341295 -0.501043,-0.34289z"/><path class="fil0" d="M3.6969 3.44296c-0.0440079,0.00207087 -0.0780079,0.0394331 -0.075937,0.0834409 0.00207087,0.0440079 0.0394331,0.0780079 0.0834409,0.075937 0.00179134,-8.66142e-005 0.626886,-0.0332992 0.547602,0.262575 -0.0113898,0.0426299 0.0139331,0.0864252 0.056563,0.097815 0.0426299,0.0113898 0.0864252,-0.0139331 0.097815,-0.056563 0.136449,-0.509213 -0.707063,-0.463319 -0.709484,-0.463205z"/><path class="fil0" d="M4.06395 2.69051c-0.0201929,-0.0391772 -0.0683228,-0.0545669 -0.1075,-0.034374 -0.0391772,0.0201929 -0.0545669,0.0683228 -0.034374,0.1075 0.00111024,0.00215354 0.38313,0.755815 0.756043,0.38289 0.0312362,-0.0312362 0.0312362,-0.0818898 0,-0.113126 -0.0312362,-0.0312362 -0.0818898,-0.0312362 -0.113126,0 -0.216449,0.216453 -0.50022,-0.341295 -0.501043,-0.34289z"/><path class="fil0" d="M3.98926 2.64738c-0.0440079,0.00207087 -0.0780079,0.0394331 -0.075937,0.0834409 0.00207087,0.0440079 0.0394331,0.0780079 0.0834409,0.075937 0.00179134,-8.66142e-005 0.626886,-0.0332992 0.547602,0.262575 -0.0113898,0.0426299 0.0139331,0.0864252 0.056563,0.097815 0.0426299,0.0113898 0.0864252,-0.0139331 0.097815,-0.056563 0.136453,-0.509217 -0.707063,-0.463319 -0.709484,-0.463205z"/><path class="fil0" d="M3.91032 4.85333c-0.0201929,-0.0391772 -0.0683228,-0.0545669 -0.1075,-0.034374 -0.0391772,0.0201929 -0.0545669,0.0683228 -0.034374,0.1075 0.00111024,0.00215354 0.383118,0.755819 0.756043,0.38289 0.0312362,-0.0312362 0.0312362,-0.0818898 0,-0.113126 -0.0312362,-0.0312362 -0.0818898,-0.0312362 -0.113126,0 -0.216453,0.216457 -0.50022,-0.341295 -0.501043,-0.34289z"/><path class="fil0" d="M3.83563 4.8102c-0.0440079,0.00207087 -0.0780079,0.0394331 -0.075937,0.0834409 0.00207087,0.0440079 0.0394331,0.0780079 0.0834409,0.075937 0.00179134,-8.66142e-005 0.626882,-0.0332992 0.547602,0.262575 -0.0113898,0.0426299 0.0139331,0.0864252 0.056563,0.097815 0.0426299,0.0113898 0.0864252,-0.0139331 0.097815,-0.056563 0.136445,-0.509217 -0.707063,-0.463319 -0.709484,-0.463205z"/><path class="fil0" d="M4.33762 4.22881c-0.0201929,-0.0391772 -0.0683228,-0.0545669 -0.1075,-0.034374 -0.0391772,0.0201929 -0.0545669,0.0683228 -0.034374,0.1075 0.00111024,0.00215354 0.383126,0.755815 0.756043,0.38289 0.0312362,-0.0312362 0.0312362,-0.0818898 0,-0.113126 -0.0312362,-0.0312362 -0.0818898,-0.0312362 -0.113126,0 -0.216445,0.216449 -0.50022,-0.341295 -0.501043,-0.34289z"/><path class="fil0" d="M4.26293 4.18568c-0.0440079,0.00207087 -0.0780079,0.0394331 -0.075937,0.0834409 0.00207087,0.0440079 0.0394331,0.0780079 0.0834409,0.075937 0.00179134,-8.66142e-005 0.626886,-0.0333031 0.547602,0.262575 -0.0113898,0.0426299 0.0139331,0.0864252 0.056563,0.097815 0.0426299,0.0113898 0.0864252,-0.0139331 0.097815,-0.056563 0.136453,-0.50922 -0.707063,-0.463319 -0.709484,-0.463205z"/><path class="fil0" d="M4.74779 3.41696c-0.0201929,-0.0391772 -0.0683228,-0.0545669 -0.1075,-0.034374 -0.0391772,0.0201929 -0.0545669,0.0683228 -0.034374,0.1075 0.00111024,0.00215354 0.383118,0.755819 0.756043,0.38289 0.0312362,-0.0312362 0.0312362,-0.0818898 0,-0.113126 -0.0312362,-0.0312362 -0.0818898,-0.0312362 -0.113126,0 -0.216453,0.216457 -0.50022,-0.341295 -0.501043,-0.34289z"/><path class="fil0" d="M4.6731 3.37384c-0.0440079,0.00207087 -0.0780079,0.0394331 -0.075937,0.0834409 0.00207087,0.0440079 0.0394331,0.0780079 0.0834409,0.075937 0.00179134,-8.66142e-005 0.626882,-0.0332992 0.547602,0.262575 -0.0113898,0.0426299 0.0139331,0.0864252 0.056563,0.097815 0.0426299,0.0113898 0.0864252,-0.0139331 0.097815,-0.056563 0.136445,-0.509213 -0.707063,-0.463319 -0.709484,-0.463205z"/><path class="fil0" d="M2.76409 4.49702c-0.0201929,-0.0391772 -0.0683228,-0.0545669 -0.1075,-0.034374 -0.0391772,0.0201929 -0.0545669,0.0683228 -0.034374,0.1075 0.00111024,0.00215354 0.383126,0.755815 0.756043,0.38289 0.0312362,-0.0312362 0.0312362,-0.0818898 0,-0.113126 -0.0312362,-0.0312362 -0.0818898,-0.0312362 -0.113126,0 -0.216445,0.216449 -0.50022,-0.341295 -0.501043,-0.34289z"/><path class="fil0" d="M2.6894 4.45389c-0.0440079,0.00207087 -0.0780079,0.0394331 -0.075937,0.0834409 0.00207087,0.0440079 0.0394331,0.0780079 0.0834409,0.075937 0.00179134,-8.66142e-005 0.626886,-0.0333031 0.547602,0.262575 -0.0113898,0.0426299 0.0139331,0.0864252 0.056563,0.097815 0.0426299,0.0113898 0.0864252,-0.0139331 0.097815,-0.056563 0.136453,-0.50922 -0.707063,-0.463319 -0.709484,-0.463205z"/></g><rect class="fil1" width="6.82666" height="6.82666"/><text x="0" y="21.82666" fill="#000000" font-size="5px" font-weight="bold" font-family="'Helvetica Neue', Helvetica, Arial-Unicode, Arial, Sans-serif">Created by IYIKON</text><text x="0" y="26.82666" fill="#000000" font-size="5px" font-weight="bold" font-family="'Helvetica Neue', Helvetica, Arial-Unicode, Arial, Sans-serif">from the Noun Project</text></svg>