<svg xmlns="http://www.w3.org/2000/svg" xmlns:xlink="http://www.w3.org/1999/xlink" xml:space="preserve" style="shape-rendering:geometricPrecision;text-rendering:geometricPrecision;image-rendering:optimizeQuality;" viewBox="0 0 6.82666 8.533325000000001" x="0px" y="0px" fill-rule="evenodd" clip-rule="evenodd"><defs><style type="text/css">
   
    .fil1 {fill:none}
    .fil0 {fill:black;fill-rule:nonzero}
   
  </style></defs><g><path class="fil0" d="M3.54738 1.59726c-0.151209,0.0421811 -0.304051,0.104264 -0.438496,0.186055 -0.116445,0.0708425 -0.218484,0.156067 -0.292441,0.255295 -0.0451929,0.0606378 -0.0788346,0.0991969 -0.109004,0.124331 -0.0404961,0.0337323 -0.0749843,0.0453937 -0.114563,0.047374 -0.0225315,0.00112598 -0.0412362,-0.00114173 -0.0636181,-0.00385827 -0.0139528,-0.00169291 -0.0295906,-0.00359449 -0.0441811,-0.00455512 -0.459665,-0.0302795 -0.567972,0.419213 -0.665913,0.825709l-0.0775 -0.018437 0.0777756 0.0187402c-0.000515748,0.00213386 -0.00111417,0.00422047 -0.00178346,0.00627165l-0.00359843 0.0149173c-0.0592283,0.245512 -0.252457,0.494417 -0.430945,0.724335 -0.0851024,0.109626 -0.166705,0.214748 -0.226272,0.310594 -0.191823,0.308669 -0.164854,0.636638 -0.075626,0.832331 0.0215551,0.0472717 0.046378,0.0857323 0.0720433,0.113008 0.0194409,0.0206614 0.0370709,0.0331024 0.0510827,0.0355197 0.00675197,0.00116535 0.0153583,-0.00542913 0.0252283,-0.0214567 0.0191969,-0.0311772 0.0212402,-0.0766575 0.0235157,-0.127539 0.00589764,-0.131689 0.0129803,-0.289642 0.231161,-0.47628 0.161843,-0.138445 0.289098,-0.210205 0.490618,-0.323811l-5.51181e-005 -9.44882e-005c0.00231102,-0.00130315 0.00465748,-0.00247244 0.0070315,-0.00352362l0.0202953 -0.0114449c0.195071,-0.110067 0.355469,-0.220772 0.498291,-0.339787 0.141618,-0.118008 0.267181,-0.245776 0.393252,-0.390465 0.0951063,-0.109157 0.198122,-0.236803 0.253287,-0.371185 0.0510866,-0.124449 0.061563,-0.258425 -0.0164646,-0.394346 -0.0217283,-0.0378465 -0.0554488,-0.0991417 -0.0789921,-0.162776 -0.0283701,-0.076689 -0.0408268,-0.15752 -0.00588976,-0.218736 0.0873661,-0.153114 0.338551,-0.284244 0.519598,-0.378756l0.036874 0.070626 -0.0370197 -0.0709173 0.00125591 -0.000633858 -3.93701e-006 -7.87402e-006 0.000362205 -0.000177165 0.000641732 -0.000311024 0.00133465 -0.000629921 0.000401575 -0.000181102 0.00131496 -0.000586614 0.000854331 -0.000362205 0.000362205 -0.000153543c0.0243858,-0.0127559 0.0097126,-0.00526378 0.0148583,-0.00788976 0.0603071,-0.0307677 0.122358,-0.0624331 0.109512,-0.148776 -0.000720472,-0.0048622 -0.00157087,-0.00901575 -0.00252756,-0.0124449 -0.00694488,-0.0248976 -0.0233228,-0.0466772 -0.0455748,-0.0612835 -0.022622,-0.0148504 -0.0514685,-0.0220157 -0.0829567,-0.0173307 -0.00636614,0.000944882 -0.0122402,0.00215354 -0.0175276,0.00362992zm-0.521622 0.0498031c0.147445,-0.0897008 0.314386,-0.157594 0.479118,-0.203551 0.0130354,-0.0036378 0.0253386,-0.0062874 0.0369055,-0.00800787 0.0724094,-0.0107756 0.139827,0.00641732 0.193587,0.0417087 0.0541299,0.0355354 0.0942953,0.0897165 0.111819,0.152528 0.00307087,0.0110236 0.00539764,0.0216654 0.00690551,0.0318228 0.0297087,0.199685 -0.084315,0.257866 -0.195134,0.314406 -0.0165276,0.00843701 -0.00516535,0.00229921 -0.0136654,0.0066811l-0.000799213 0.000503937 -0.000110236 7.08661e-005 -0.00153543 0.000933071 -0.000425197 0.000244094 -0.00144094 0.000822835 -0.000153543 8.26772e-005 -0.00159843 0.000862205 -0.00011811 6.29921e-005 0 -3.93701e-006 -0.00123622 0.000637795 -0.000141732 -0.000283465c-0.163453,0.0853268 -0.389378,0.203469 -0.453366,0.31561 -0.00665748,0.0116654 0.0028937,0.0464764 0.0171417,0.0849882 0.0190748,0.0515591 0.0485984,0.105055 0.0677402,0.138398 0.107004,0.186394 0.0937362,0.367445 0.0252205,0.534346 -0.064437,0.156969 -0.176898,0.297035 -0.280169,0.415563 -0.129854,0.149031 -0.261047,0.282181 -0.412,0.407969 -0.149752,0.124787 -0.317803,0.240795 -0.522039,0.356031l-0.0202244 0.0114055c-0.00212598,0.00148819 -0.00434252,0.00288976 -0.00665354,0.00419291l-0.000188976 -0.000334646 -3.54331e-005 1.9685e-005 -0.039063 -0.069374 0.039063 0.069689c-0.193646,0.109173 -0.315898,0.178094 -0.465165,0.30578 -0.165665,0.141713 -0.171047,0.261791 -0.175531,0.361902 -0.00325591,0.072689 -0.00616929,0.137661 -0.0472717,0.204413 -0.048815,0.0792756 -0.115138,0.107744 -0.187724,0.0952126 -0.0490039,-0.00846063 -0.0972087,-0.0376772 -0.140461,-0.0836457 -0.0370276,-0.0393543 -0.0717992,-0.0925472 -0.100791,-0.156134 -0.106252,-0.23302 -0.13972,-0.62135 0.0850039,-0.982961 0.0628543,-0.101142 0.147437,-0.210094 0.235642,-0.32372 0.168543,-0.217106 0.351008,-0.452146 0.402197,-0.664335l0.00355906 -0.0147677c0.000334646,-0.00212992 0.000755906,-0.00426378 0.00127165,-0.00639764l0.000255906 6.29921e-005 1.9685e-005 -7.48031e-005 7.08661e-005 1.5748e-005c0.112937,-0.468764 0.237937,-0.986965 0.830843,-0.947913 0.0223465,0.0014685 0.0385197,0.00343701 0.0529291,0.00518504 0.0162008,0.00196457 0.0297441,0.00361024 0.0373661,0.00322835 0.00520472,-0.000259843 0.0109646,-0.00281496 0.0201929,-0.0105 0.0195472,-0.0162835 0.0451575,-0.0463819 0.082752,-0.0968268 0.0872165,-0.117024 0.204752,-0.215823 0.337441,-0.296547z"/><path class="fil0" d="M2.2989 2.14227c-0.00862992,-0.0431457 -0.0506063,-0.0711299 -0.093752,-0.0625 -0.0431457,0.00862992 -0.0711299,0.0506063 -0.0625,0.093752 0.000484252,0.00240551 0.159248,0.844028 1.12204,0.560268 0.0422835,-0.0124252 0.0664882,-0.0567795 0.054063,-0.099063 -0.0124252,-0.0422835 -0.0567795,-0.0664882 -0.099063,-0.054063 -0.794217,0.234079 -0.920398,-0.436476 -0.920783,-0.438394z"/><path class="fil0" d="M2.56317 5.23469c0.157031,-0.0016063 0.320846,-0.0220354 0.472028,-0.0662874 0.130654,-0.0382402 0.25122,-0.0941575 0.348441,-0.170945 0.0598819,-0.0472992 0.10228,-0.075878 0.137173,-0.0919961 0.0477992,-0.0220787 0.0840079,-0.0244291 0.122571,-0.0161417 0.0212677,0.00457087 0.0393425,0.0118504 0.0609764,0.0205551 0.011878,0.00477953 0.0252047,0.0101457 0.0415787,0.0157087 0.435957,0.148142 0.65698,-0.258134 0.856854,-0.625543l0.0104055 -0.019126c0.120646,-0.221614 0.371878,-0.412154 0.603953,-0.588165 0.110197,-0.0835748 0.215866,-0.16372 0.298614,-0.241268 0.265181,-0.248508 0.323996,-0.572425 0.288433,-0.784681 -0.00860236,-0.0513622 -0.0225787,-0.094878 -0.0402008,-0.127669 -0.0134724,-0.0250709 -0.027311,-0.0416929 -0.0402165,-0.0476535 -0.00608268,-0.00280709 -0.0160512,0.00140945 -0.0298189,0.0144173 -0.0264173,0.0249606 -0.040185,0.0684528 -0.0555827,0.117098 -0.0397244,0.125504 -0.0873701,0.276031 -0.34676,0.399996 -0.191705,0.0916142 -0.333409,0.128035 -0.55787,0.18572l-0.0301299 0.00774803c-0.216354,0.0556811 -0.399909,0.121142 -0.569079,0.199319 -0.168996,0.0780984 -0.323256,0.168835 -0.481291,0.275161 -0.119665,0.0805197 -0.251823,0.176933 -0.340394,0.293122 -0.0816102,0.107059 -0.126461,0.233783 -0.0862953,0.385169 0.0111378,0.0419843 0.0277756,0.109669 0.0340748,0.177567 0.00756693,0.0815354 -0.00133858,0.162949 -0.0509921,0.21311 -0.0640945,0.064752 -0.167799,0.112406 -0.281287,0.149366 -0.104913,0.0341732 -0.221161,0.0600866 -0.318535,0.0817874 -0.0252165,0.00562598 -0.0222598,0.005 -0.0232717,0.0052126 -0.0662087,0.0141102 -0.134343,0.0286339 -0.14426,0.115213 -0.000610236,0.00532283 -0.000889764,0.00962992 -0.000858268,0.0129213 0.00026378,0.0257992 0.0105118,0.0511181 0.0283425,0.071122 0.0179331,0.0201181 0.0438189,0.0344449 0.0752795,0.0380512 0.00682283,0.000779528 0.0129055,0.00116142 0.0181181,0.00111024zm0.516406 0.0868386c-0.165476,0.048437 -0.344201,0.0707874 -0.515154,0.0725394 -0.013815,0.000141732 -0.0263031,-0.00046063 -0.0374961,-0.00174016 -0.0728858,-0.00835827 -0.133677,-0.0424685 -0.176531,-0.0905472 -0.0429646,-0.0481969 -0.0676732,-0.110874 -0.0683425,-0.176122 -0.000122047,-0.0117126 0.000370079,-0.0225157 0.00148819,-0.0322992 0.0229961,-0.200717 0.148201,-0.227406 0.269882,-0.253339 0.0161772,-0.00344094 0.0117992,-0.00230315 0.0220197,-0.00458268 0.0923307,-0.0205787 0.202551,-0.0451457 0.303535,-0.0780394 0.0924173,-0.0300984 0.174098,-0.0661102 0.217539,-0.109996 0.00938189,-0.00947638 0.00915354,-0.0454567 0.00537008,-0.0862283 -0.00504331,-0.0543937 -0.0197913,-0.113957 -0.0297047,-0.151323 -0.0551457,-0.207839 0.00448031,-0.37926 0.113799,-0.522665 0.102358,-0.134276 0.247634,-0.240685 0.37852,-0.328752 0.165185,-0.111138 0.326453,-0.205992 0.503165,-0.287657 0.176535,-0.0815787 0.368909,-0.150106 0.596575,-0.208697l0.0301299 -0.00774803c0.215008,-0.0552559 0.350748,-0.0901417 0.5285,-0.175091 0.196366,-0.0938465 0.232709,-0.208654 0.263004,-0.304374 0.0219291,-0.0692756 0.0415315,-0.131201 0.0987087,-0.185224 0.0675866,-0.0638661 0.139067,-0.0741142 0.206071,-0.0431654 0.0451457,0.0208583 0.0841299,0.0615118 0.113965,0.117031 0.025689,0.0477992 0.0455551,0.108232 0.0570827,0.177039 0.0422992,0.252453 -0.0259055,0.636063 -0.336559,0.927185 -0.0864803,0.0810433 -0.196748,0.164677 -0.31174,0.25189 -0.218831,0.165969 -0.455732,0.345638 -0.560205,0.537543l-0.0104055 0.019126c-0.230398,0.42352 -0.485173,0.891835 -1.04811,0.700543 -0.0186772,-0.00634646 -0.0350827,-0.0129528 -0.0497047,-0.0188346 -0.0144213,-0.00580315 -0.0264803,-0.0106575 -0.0347244,-0.0124291 -0.00527165,-0.00112992 -0.0116142,-0.000169291 -0.0225709,0.00488976 -0.0238465,0.0110157 -0.0564528,0.0334134 -0.105299,0.0719961 -0.114437,0.0903819 -0.253587,0.155394 -0.402811,0.199071z"/><path class="fil0" d="M3.90999 5.03176c-0.00258661,0.0440079 0.0309921,0.0817913 0.075,0.084378 0.0440079,0.00258661 0.0817913,-0.0309921 0.084378,-0.075 0.000149606,-0.00244882 0.0645906,-0.855961 -0.938933,-0.831055 -0.0440079,0.0010315 -0.0788465,0.0375551 -0.077815,0.081563 0.0010315,0.0440079 0.0375551,0.0788465 0.081563,0.077815 0.827634,-0.0205394 0.775929,0.660346 0.775807,0.662299z"/></g><rect class="fil1" width="6.82666" height="6.82666"/><text x="0" y="21.82666" fill="#000000" font-size="5px" font-weight="bold" font-family="'Helvetica Neue', Helvetica, Arial-Unicode, Arial, Sans-serif">Created by IYIKON</text><text x="0" y="26.82666" fill="#000000" font-size="5px" font-weight="bold" font-family="'Helvetica Neue', Helvetica, Arial-Unicode, Arial, Sans-serif">from the Noun Project</text></svg>