<svg xmlns="http://www.w3.org/2000/svg" xmlns:xlink="http://www.w3.org/1999/xlink" xml:space="preserve" style="shape-rendering:geometricPrecision;text-rendering:geometricPrecision;image-rendering:optimizeQuality;" viewBox="0 0 6.82666 8.533325000000001" x="0px" y="0px" fill-rule="evenodd" clip-rule="evenodd"><defs><style type="text/css">
   
    .fil1 {fill:none}
    .fil0 {fill:black;fill-rule:nonzero}
   
  </style></defs><g><path class="fil0" d="M1.01333 3.4765l0 1.60859c0.0707756,0.261602 1.55039,-0.00474016 2.29822,-0.139382 0.106488,-0.0191732 0.19876,-0.0357913 0.271256,-0.047937 -0.166835,-0.382902 -0.105929,-0.698587 0.0602677,-0.914173 0.123606,-0.160331 0.305681,-0.263815 0.496173,-0.297768 0.192118,-0.0342402 0.393831,0.00202756 0.55472,0.121598 0.207854,0.154476 0.34472,0.445508 0.29665,0.898594 0.882941,-0.156866 0.857976,-0.439866 0.793941,-1.16098 -0.0202717,-0.228276 -0.0441299,-0.496984 -0.0481693,-0.810862l-2.99282 0.427217 1.9685e-005 0.000137795c-0.00133465,0.000188976 -0.00266929,0.000350394 -0.004,0.000472441l-1.72625 0.314492zm-0.16 1.61767l0 -1.68316c-0.000492126,-0.0383228 0.0266969,-0.0725433 0.0656614,-0.0796417l0.0143386 0.0787047 -0.014063 -0.078437 1.79167 -0.326409c0.00325591,-0.000897638 0.0066063,-0.00159843 0.0100354,-0.00208661l0.0113071 0.0791969 -0.011252 -0.079063 3.07856 -0.439453c0.00523622,-0.0010748 0.0106535,-0.00164567 0.0162047,-0.00164567 0.0441811,0 0.08,0.0358189 0.08,0.08 0,0.354075 0.0258622,0.645264 0.0475157,0.889118 0.0759528,0.855299 0.103988,1.17222 -1.02647,1.34859 -0.0103031,0.00261417 -0.0212953,0.00321654 -0.0324567,0.00140551 -0.0436102,-0.0070748 -0.0732283,-0.0481732 -0.0661535,-0.0917835l0.0789685 0.012815 -0.078752 -0.012811c0.0724724,-0.446591 -0.039374,-0.72011 -0.219476,-0.853961 -0.123516,-0.0917953 -0.280854,-0.119197 -0.432217,-0.0922205 -0.152988,0.0272677 -0.298854,0.109909 -0.397425,0.237768 -0.144776,0.187799 -0.187079,0.476327 -0.00080315,0.836012 0.00615354,0.00961024 0.0103425,0.0206929 0.0119134,0.0327559 0.00570866,0.043811 -0.0251811,0.0839606 -0.0689921,0.0896693l-3.54331e-005 -0.000267717c-0.072811,0.00948425 -0.204402,0.0331811 -0.371732,0.063311 -0.797713,0.143622 -2.37414,0.427378 -2.48182,0.0181457 -0.0029252,-0.00831102 -0.00451969,-0.0172441 -0.00451969,-0.0265551z"/><path class="fil0" d="M0.880831 3.35008c-0.0331339,0.0289921 -0.0364921,0.0793661 -0.0075,0.1125 0.0289921,0.0331339 0.0793661,0.0364921 0.1125,0.0075l1.41752 -1.24149c0.207102,0.0256142 1.20578,0.118421 0.732173,-0.546217 0.330185,-0.0737126 1.37762,-0.177957 2.62495,1.01731 0.0317559,0.0305472 0.0822638,0.0295669 0.112811,-0.00218898 0.0305472,-0.0317559 0.0295669,-0.0822638 -0.00218898,-0.112811 -1.51834,-1.45496 -2.7849,-1.06109 -2.89046,-1.02481 -0.0112874,0.00283465 -0.022122,0.00818898 -0.0316575,0.0161339 -0.0339409,0.0282835 -0.0385236,0.0787323 -0.0102402,0.112673l0.000255906 -0.000212598c0.423898,0.50876 -0.480201,0.386972 -0.545417,0.377626 -0.0234528,-0.00456693 -0.048689,0.00137402 -0.0680551,0.0183307l0.000181102 0.000204724 -1.44487 1.26545z"/><path class="fil0" d="M1.94764 4.04533c0.117205,0 0.223331,0.0475157 0.300146,0.124331 0.076811,0.076815 0.124331,0.182937 0.124331,0.300142 0,0.117209 -0.0475197,0.223331 -0.124331,0.300146 -0.076815,0.076815 -0.182941,0.124331 -0.300146,0.124331 -0.117205,0 -0.223327,-0.0475197 -0.300142,-0.124331 -0.076815,-0.076815 -0.124331,-0.182941 -0.124331,-0.300146 0,-0.117205 0.0475157,-0.223327 0.124331,-0.300142 0.076815,-0.076811 0.182937,-0.124331 0.300142,-0.124331zm0.18702 0.237457c-0.0478543,-0.0478543 -0.113984,-0.0774567 -0.18702,-0.0774567 -0.0730354,0 -0.139161,0.0296063 -0.187016,0.0774567 -0.0478543,0.0478543 -0.0774567,0.11398 -0.0774567,0.187016 0,0.0730354 0.0296024,0.139165 0.0774567,0.18702 0.0478543,0.0478504 0.11398,0.0774567 0.187016,0.0774567 0.0730354,0 0.139165,-0.0296024 0.18702,-0.0774567 0.0478504,-0.0478543 0.0774567,-0.11398 0.0774567,-0.18702 0,-0.0730354 -0.0296063,-0.139161 -0.0774567,-0.187016z"/><path class="fil0" d="M3.97621 1.90194c0.101354,0 0.193122,0.0410906 0.259547,0.107516 0.0664252,0.0664252 0.107516,0.158193 0.107516,0.259547 0,0.101354 -0.0410906,0.193122 -0.107516,0.259547 -0.0664173,0.0664252 -0.158193,0.107516 -0.259547,0.107516 -0.101354,0 -0.193122,-0.0410906 -0.259543,-0.107516 -0.0664252,-0.0664252 -0.107516,-0.158193 -0.107516,-0.259547 0,-0.101354 0.0410906,-0.193122 0.107516,-0.259547 0.0664213,-0.0664252 0.158193,-0.107516 0.259543,-0.107516zm0.146421 0.220642c-0.0374646,-0.0374646 -0.0892402,-0.0606417 -0.146421,-0.0606417 -0.057185,0 -0.108957,0.0231772 -0.146417,0.0606417 -0.0374646,0.0374646 -0.0606417,0.0892402 -0.0606417,0.146421 0,0.0571811 0.0231772,0.108957 0.0606417,0.146421 0.0374606,0.0374646 0.0892362,0.0606417 0.146417,0.0606417 0.0571811,0 0.108961,-0.0231772 0.146421,-0.0606417 0.0374646,-0.0374646 0.0606417,-0.0892402 0.0606417,-0.146421 0,-0.0571811 -0.0231772,-0.108957 -0.0606417,-0.146421z"/></g><rect class="fil1" width="6.82666" height="6.82666"/><text x="0" y="21.82666" fill="#000000" font-size="5px" font-weight="bold" font-family="'Helvetica Neue', Helvetica, Arial-Unicode, Arial, Sans-serif">Created by IYIKON</text><text x="0" y="26.82666" fill="#000000" font-size="5px" font-weight="bold" font-family="'Helvetica Neue', Helvetica, Arial-Unicode, Arial, Sans-serif">from the Noun Project</text></svg>