<svg xmlns="http://www.w3.org/2000/svg" xmlns:xlink="http://www.w3.org/1999/xlink" xml:space="preserve" style="shape-rendering:geometricPrecision;text-rendering:geometricPrecision;image-rendering:optimizeQuality;" viewBox="0 0 6.82666 8.533325000000001" x="0px" y="0px" fill-rule="evenodd" clip-rule="evenodd"><defs><style type="text/css">
   
    .fil1 {fill:none}
    .fil0 {fill:black;fill-rule:nonzero}
   
  </style></defs><g><path class="fil0" d="M5.59696 3.34072c-0.0222598,-0.0379685 -0.0710945,-0.0507008 -0.109063,-0.0284409 -0.0379685,0.0222598 -0.0507008,0.0710945 -0.0284409,0.109063 0.262157,0.446449 0.35765,0.701724 0.354075,0.825772 -0.000858268,0.0297677 -0.0144055,0.0405276 -0.0347953,0.0377953 -0.0599173,-0.00803543 -0.145567,-0.0545157 -0.237709,-0.123638 -0.241941,-0.181508 -0.508047,-0.502902 -0.478394,-0.700598 0.00638583,-0.0436614 -0.0238386,-0.0842402 -0.0675,-0.090626 -0.0436614,-0.00638583 -0.0842402,0.0238386 -0.090626,0.0675 -0.0386575,0.257713 0.263673,0.643248 0.540898,0.851228 0.112874,0.0846811 0.224583,0.142528 0.312079,0.15426 0.127016,0.0170354 0.210972,-0.0369803 0.215425,-0.191543 0.00434252,-0.150638 -0.0969173,-0.435583 -0.375949,-0.910772z"/><path class="fil0" d="M5.45945 3.34072c-0.0222598,0.0379685 -0.00952756,0.0868031 0.0284409,0.109063 0.0379685,0.0222598 0.0868031,0.00952756 0.109063,-0.0284409 0.279244,-0.475543 0.379929,-0.760488 0.374787,-0.911366 -0.00525197,-0.154071 -0.0893386,-0.208346 -0.215953,-0.192429 -0.088126,0.0110787 -0.200295,0.0679409 -0.313378,0.151165 -0.273098,0.20098 -0.568957,0.570902 -0.538846,0.81752l0 0.249465c0,0.0441811 0.0358189,0.08 0.08,0.08 0.0441811,0 0.08,-0.0358189 0.08,-0.08l0 -0.252626c5.11811e-005,-0.00426378 -0.000232283,-0.00858661 -0.000885827,-0.012937l-8.66142e-005 1.1811e-005c-0.027622,-0.186272 0.234583,-0.496343 0.474197,-0.672685 0.0922717,-0.0679055 0.178197,-0.113602 0.238378,-0.121165 0.021689,-0.00272441 0.0361614,0.00826378 0.0371969,0.0386811 0.00423228,0.124154 -0.0907283,0.379252 -0.352913,0.825744z"/><path class="fil0" d="M0.864268 3.37307c-0.0222598,0.0381417 -0.00938976,0.0871142 0.028752,0.109374 0.0381417,0.0222598 0.0871142,0.00938976 0.109374,-0.028752 0.00477559,-0.0081811 1.64131,-2.88446 3.89515,0.00875197 0.0270945,0.034689 0.077185,0.0408425 0.111874,0.013748 0.034689,-0.0270945 0.0408425,-0.077185 0.013748,-0.111874 -2.40034,-3.08129 -4.15378,-1.1811e-005 -4.15889,0.00875197z"/><path class="fil0" d="M1.00239 3.37307c-0.0222598,-0.0381417 -0.0712323,-0.0510118 -0.109374,-0.028752 -0.0381417,0.0222598 -0.0510118,0.0712323 -0.028752,0.109374 0.00495276,0.00849213 1.7028,2.99213 4.04634,0.149268 0.0121772,-0.0147677 0.0221535,-0.0269409 0.0298937,-0.0364764 0.00178346,-0.00220079 0.0115551,-0.0144016 0.0300079,-0.0374803 0.0118661,-0.0148346 0.0205,-0.0256772 0.0263031,-0.0330315 0.0121378,-0.0153858 0.0210748,-0.026752 0.0263504,-0.0335276 0.0270945,-0.034689 0.0209409,-0.0847795 -0.013748,-0.111874 -0.034689,-0.0270945 -0.0847795,-0.0209409 -0.111874,0.013748 -0.0120945,0.0155315 -0.0205354,0.0263228 -0.0257283,0.0329055 -0.0115394,0.0146181 -0.0202402,0.0255984 -0.0256811,0.0324016 -0.00135827,0.00170079 -0.0113976,0.0140827 -0.029378,0.0362362 -0.0119921,0.0147795 -0.021752,0.0267283 -0.0292717,0.0358465 -2.19603,2.66392 -3.78046,-0.120713 -3.78509,-0.128638z"/><path class="fil0" d="M2.2578 2.17746c-0.0305472,-0.0317559 -0.0810551,-0.0327362 -0.112811,-0.00218898 -0.0317559,0.0305472 -0.0327362,0.0810551 -0.00218898,0.112811 0.00191732,0.00200394 0.676594,0.682488 -0.015311,2.22416 -0.0179488,0.0402087 0.000102362,0.0873622 0.040311,0.105311 0.0402087,0.0179488 0.0873622,-0.000102362 0.105311,-0.040311 0.736264,-1.64052 -0.0131772,-2.39756 -0.015311,-2.39978z"/><path class="fil0" d="M1.67189 2.95379c0.0824685,0 0.157146,0.033437 0.211193,0.0874843 0.0540512,0.0540512 0.0874882,0.128724 0.0874882,0.211193 0,0.0824685 -0.033437,0.157146 -0.0874882,0.211193 -0.0540472,0.0540512 -0.128724,0.0874882 -0.211193,0.0874882 -0.0824685,0 -0.157142,-0.033437 -0.211193,-0.0874882 -0.0540472,-0.0540472 -0.0874843,-0.128724 -0.0874843,-0.211193 0,-0.0824646 0.033437,-0.157142 0.0874843,-0.211193 0.0540512,-0.0540472 0.128728,-0.0874843 0.211193,-0.0874843zm0.0980669 0.20061c-0.0250866,-0.0250866 -0.0597677,-0.0406102 -0.0980669,-0.0406102 -0.0382992,0 -0.0729764,0.0155236 -0.0980669,0.0406102 -0.0250866,0.0250906 -0.0406102,0.0597677 -0.0406102,0.0980669 0,0.0382992 0.0155236,0.0729803 0.0406102,0.0980669 0.0250906,0.0250906 0.0597677,0.0406142 0.0980669,0.0406142 0.0383031,0 0.0729803,-0.0155236 0.0980669,-0.0406142 0.0250906,-0.0250866 0.0406142,-0.0597638 0.0406142,-0.0980669 0,-0.0382992 -0.0155236,-0.0729764 -0.0406142,-0.0980669z"/><path class="fil0" d="M3.61418 3.01987c-0.0350315,-0.026748 -0.085126,-0.0200315 -0.111874,0.015 -0.026748,0.0350315 -0.0200315,0.085126 0.015,0.111874 0.0023937,0.00183465 0.841984,0.640315 0.22076,0.583378l2.75591e-005 -0.000299213c-0.00395669,-0.000362205 -0.00787402,-0.000425197 -0.0117283,-0.000216535 -0.0595984,-0.00251575 -0.549433,-0.0376693 -0.617945,-0.517268 -0.0062126,-0.0436614 -0.0466535,-0.0740236 -0.090315,-0.067811 -0.0436614,0.0062126 -0.0740236,0.0466535 -0.067811,0.090315 0.086437,0.605091 0.694079,0.650705 0.770937,0.654071l0.00224803 0.000240157 1.1811e-005 -0.000149606 0.00327559 0.000114173c1.17189,0.105921 -0.108937,-0.866453 -0.112587,-0.869248z"/><path class="fil0" d="M2.95223 2.01545c-0.0405551,0.0170827 -0.0595827,0.0638189 -0.0425,0.104374 0.0170827,0.0405551 0.0638189,0.0595827 0.104374,0.0425l0.756402 -0.319819 0.373394 0.0903346 -0.29852 0.432941c-0.0250236,0.0362441 -0.0159291,0.0859134 0.020315,0.110937 0.0362441,0.0250236 0.0859134,0.0159291 0.110937,-0.020315l0.360705 -0.52313c0.00737795,-0.00900394 0.0128937,-0.0197717 0.015815,-0.0318465 0.0103858,-0.0429409 -0.0160039,-0.0861811 -0.0589449,-0.0965669l-6.29921e-005 0.000255906 -0.505366 -0.122264c-0.017748,-0.00584646 -0.0376063,-0.00554724 -0.0561654,0.00229921l0.000122047 0.000287402 -0.780504 0.330012z"/><path class="fil0" d="M3.0141 4.66433c-0.0405551,-0.0170827 -0.0872913,0.00194488 -0.104374,0.0425 -0.0170827,0.0405551 0.00194488,0.0872913 0.0425,0.104374l0.780504 0.330012 -0.000122047 0.000287402c0.0185591,0.00784646 0.0384173,0.00814567 0.0561654,0.00229921l0.505366 -0.122264 6.29921e-005 0.000255906c0.0429409,-0.0103858 0.0693307,-0.053626 0.0589449,-0.0965669 -0.00292126,-0.0120748 -0.00843701,-0.0228425 -0.015815,-0.0318465l-0.360705 -0.52313c-0.0250236,-0.0362441 -0.0746929,-0.0453386 -0.110937,-0.020315 -0.0362441,0.0250236 -0.0453386,0.0746929 -0.020315,0.110937l0.29852 0.432941 -0.373394 0.0903346 -0.756402 -0.319819z"/></g><rect class="fil1" width="6.82666" height="6.82666"/><text x="0" y="21.82666" fill="#000000" font-size="5px" font-weight="bold" font-family="'Helvetica Neue', Helvetica, Arial-Unicode, Arial, Sans-serif">Created by IYIKON</text><text x="0" y="26.82666" fill="#000000" font-size="5px" font-weight="bold" font-family="'Helvetica Neue', Helvetica, Arial-Unicode, Arial, Sans-serif">from the Noun Project</text></svg>