<svg xmlns="http://www.w3.org/2000/svg" xmlns:xlink="http://www.w3.org/1999/xlink" xml:space="preserve" style="shape-rendering:geometricPrecision;text-rendering:geometricPrecision;image-rendering:optimizeQuality;" viewBox="0 0 6.82666 8.533325000000001" x="0px" y="0px" fill-rule="evenodd" clip-rule="evenodd"><defs><style type="text/css">
   
    .fil1 {fill:none}
    .fil0 {fill:black;fill-rule:nonzero}
   
  </style></defs><g><path class="fil0" d="M3.41333 0.853331c0.706917,0 1.34692,0.286539 1.81019,0.749811 0.463272,0.463272 0.749811,1.10327 0.749811,1.81019 0,0.706917 -0.286539,1.34692 -0.749811,1.81019 -0.463272,0.463272 -1.10327,0.749811 -1.81019,0.749811 -0.706917,0 -1.34692,-0.286539 -1.81019,-0.749811 -0.463272,-0.463272 -0.749811,-1.10327 -0.749811,-1.81019 0,-0.706917 0.286539,-1.34692 0.749811,-1.81019 0.463272,-0.463272 1.10327,-0.749811 1.81019,-0.749811zm1.69706 0.862937c-0.434307,-0.434307 -1.03431,-0.702937 -1.69706,-0.702937 -0.662748,0 -1.26276,0.26863 -1.69706,0.702937 -0.434307,0.434307 -0.702937,1.03431 -0.702937,1.69706 0,0.662748 0.26863,1.26276 0.702937,1.69706 0.434307,0.434307 1.03431,0.702937 1.69706,0.702937 0.662748,0 1.26276,-0.26863 1.69706,-0.702937 0.434307,-0.434307 0.702937,-1.03431 0.702937,-1.69706 0,-0.662748 -0.26863,-1.26276 -0.702937,-1.69706z"/><path class="fil0" d="M0.977756 3.68746c-0.0427992,-0.0108701 -0.0863189,0.0150118 -0.097189,0.057811 -0.0108701,0.0427992 0.0150118,0.0863189 0.057811,0.097189 0.00220866,0.000562992 0.773165,0.191917 0.695079,0.697043l0.078752 0.012189 -0.0790591 -0.0122205c-0.00401181,0.0259606 0.00494094,0.0509331 0.0220394,0.0683346 0.042878,0.0489724 0.440807,0.479539 1.02308,0.289484 0.167539,0.153646 0.872382,0.721181 1.45276,-0.00401969 0.186547,-0.0153307 1.01137,-0.126409 1.06386,-0.89361 0.0962717,-0.0847362 0.463146,-0.390681 0.663807,-0.317717 0.0414213,0.0150157 0.0871732,-0.00638976 0.102189,-0.047811 0.0150157,-0.0414213 -0.00638976,-0.0871732 -0.047811,-0.102189 -0.308807,-0.112291 -0.798937,0.324913 -0.846287,0.368071 -0.017315,0.0140315 -0.0287126,0.035189 -0.0296024,0.0592087l0.0799449 0.00296063 -0.079689 -0.00281102c-0.0264488,0.714134 -0.864756,0.772669 -0.943972,0.776626 -0.0251142,-0.000889764 -0.0502559,0.0100354 -0.0666063,0.0315669l0.0637087 0.0483858 -0.063437 -0.048126c-0.52965,0.697378 -1.20881,0.045378 -1.26791,-0.013685 -0.0212874,-0.0251811 -0.0569055,-0.0355079 -0.0894843,-0.0231496l6.69291e-005 0.000177165c-0.45848,0.173791 -0.787598,-0.11752 -0.874094,-0.206465 0.0588386,-0.620091 -0.815398,-0.836591 -0.817957,-0.837244z"/><path class="fil0" d="M1.88491 2.84301c0.0327913,-0.0295118 0.0354488,-0.0800197 0.00593701,-0.112811 -0.0295118,-0.0327913 -0.0800197,-0.0354488 -0.112811,-0.00593701l-0.36048 0.324307c-0.0327913,0.0295118 -0.0354488,0.0800197 -0.00593701,0.112811 0.0295118,0.0327913 0.0800197,0.0354488 0.112811,0.00593701l0.36048 -0.324307z"/><path class="fil0" d="M3.23153 1.89427c0.0327913,-0.0295118 0.0354488,-0.0800197 0.00593701,-0.112811 -0.0295118,-0.0327913 -0.0800197,-0.0354488 -0.112811,-0.00593701l-0.360484 0.324307c-0.0327913,0.0295118 -0.0354488,0.0800197 -0.00593701,0.112811 0.0295118,0.0327913 0.0800197,0.0354488 0.112811,0.00593701l0.360484 -0.324307z"/><path class="fil0" d="M4.77584 3.15501c-0.0369331,-0.0239882 -0.0863228,-0.0134961 -0.110311,0.023437 -0.0239882,0.0369331 -0.0134961,0.0863228 0.023437,0.110311l0.406555 0.264264c0.0369331,0.0239882 0.0863228,0.0134961 0.110311,-0.023437 0.0239882,-0.0369331 0.0134961,-0.0863228 -0.023437,-0.110311l-0.406555 -0.264264z"/><path class="fil0" d="M4.93748 2.55132c0.0393504,-0.0200197 0.0550197,-0.0681535 0.035,-0.107504 -0.0200197,-0.0393504 -0.0681535,-0.0550197 -0.107504,-0.035l-0.432138 0.219961c-0.0393504,0.0200197 -0.0550197,0.0681535 -0.035,0.107504 0.0200197,0.0393504 0.0681535,0.0550197 0.107504,0.035l0.432138 -0.219961z"/><path class="fil0" d="M4.04076 1.65069c0.00224016,-0.0440079 -0.0316181,-0.0815118 -0.075626,-0.083752 -0.0440079,-0.00224016 -0.0815118,0.0316181 -0.083752,0.075626l-0.0255787 0.48422c-0.00224016,0.0440079 0.0316181,0.0815118 0.075626,0.083752 0.0440079,0.00224016 0.0815118,-0.0316181 0.083752,-0.075626l0.0255787 -0.48422z"/><path class="fil0" d="M4.66169 1.65167c-0.0200197,-0.0393504 -0.0681535,-0.0550197 -0.107504,-0.035 -0.0393504,0.0200197 -0.0550197,0.0681535 -0.035,0.107504l0.219957 0.432138c0.0200197,0.0393504 0.0681535,0.0550197 0.107504,0.035 0.0393504,-0.0200197 0.0550197,-0.0681535 0.035,-0.107504l-0.219957 -0.432138z"/><path class="fil0" d="M2.93807 1.24573c-0.041937,-0.0136339 -0.0869921,0.00931102 -0.100626,0.051248 -0.0136339,0.041937 0.00931102,0.0869921 0.051248,0.100626l0.461102 0.150035c0.041937,0.0136339 0.0869921,-0.00931102 0.100626,-0.051248 0.0136339,-0.041937 -0.00931102,-0.0869921 -0.051248,-0.100626l-0.461102 -0.150035z"/><path class="fil0" d="M2.83504 4.24315c0.0327913,-0.0295118 0.0354488,-0.0800197 0.00593701,-0.112811 -0.0295118,-0.0327913 -0.0800197,-0.0354488 -0.112811,-0.00593701l-0.36048 0.324307c-0.0327913,0.0295118 -0.0354488,0.0800197 -0.00593701,0.112811 0.0295118,0.0327913 0.0800197,0.0354488 0.112811,0.00593701l0.36048 -0.324307z"/><path class="fil0" d="M2.04496 3.46705c-0.00914567,-0.0431457 -0.0515433,-0.0707087 -0.094689,-0.061563 -0.0431457,0.00914567 -0.0707087,0.0515433 -0.061563,0.094689l0.100618 0.474339c0.00914567,0.0431457 0.0515433,0.0707087 0.094689,0.061563 0.0431457,-0.00914567 0.0707087,-0.0515433 0.061563,-0.094689l-0.100618 -0.474339z"/><path class="fil0" d="M4.58204 3.75378c0.0136339,-0.041937 -0.00931102,-0.0869921 -0.051248,-0.100626 -0.041937,-0.0136339 -0.0869921,0.00931102 -0.100626,0.051248l-0.150031 0.461098c-0.0136339,0.041937 0.00931102,0.0869921 0.051248,0.100626 0.041937,0.0136339 0.0869921,-0.00931102 0.100626,-0.051248l0.150031 -0.461098z"/><path class="fil0" d="M2.19868 2.31289c0.0369331,0.0239882 0.0863228,0.0134961 0.110311,-0.023437 0.0239882,-0.0369331 0.0134961,-0.0863228 -0.023437,-0.110311l-0.406555 -0.264264c-0.0369331,-0.0239882 -0.0863228,-0.0134961 -0.110311,0.023437 -0.0239882,0.0369331 -0.0134961,0.0863228 0.023437,0.110311l0.406555 0.264264z"/><path class="fil0" d="M3.41333 2.56341c0.234685,0 0.447173,0.0951378 0.600976,0.248941 0.153803,0.153803 0.248941,0.366291 0.248941,0.600976 0,0.234685 -0.0951378,0.447173 -0.248941,0.600976 -0.153803,0.153803 -0.366291,0.248941 -0.600976,0.248941 -0.234685,0 -0.447173,-0.0951378 -0.600976,-0.248941 -0.153803,-0.153803 -0.248941,-0.366291 -0.248941,-0.600976 0,-0.234685 0.0951378,-0.447173 0.248941,-0.600976 0.153803,-0.153803 0.366291,-0.248941 0.600976,-0.248941zm0.48785 0.362067c-0.124843,-0.124843 -0.297331,-0.202067 -0.48785,-0.202067 -0.19052,0 -0.363008,0.0772244 -0.48785,0.202067 -0.124843,0.124843 -0.202067,0.297331 -0.202067,0.48785 0,0.19052 0.0772244,0.363008 0.202067,0.48785 0.124843,0.124843 0.297331,0.202067 0.48785,0.202067 0.19052,0 0.363008,-0.0772244 0.48785,-0.202067 0.124843,-0.124843 0.202067,-0.297331 0.202067,-0.48785 0,-0.19052 -0.0772244,-0.363008 -0.202067,-0.48785z"/></g><rect class="fil1" width="6.82666" height="6.82666"/><text x="0" y="21.82666" fill="#000000" font-size="5px" font-weight="bold" font-family="'Helvetica Neue', Helvetica, Arial-Unicode, Arial, Sans-serif">Created by IYIKON</text><text x="0" y="26.82666" fill="#000000" font-size="5px" font-weight="bold" font-family="'Helvetica Neue', Helvetica, Arial-Unicode, Arial, Sans-serif">from the Noun Project</text></svg>