<svg xmlns="http://www.w3.org/2000/svg" xmlns:xlink="http://www.w3.org/1999/xlink" xml:space="preserve" style="shape-rendering:geometricPrecision;text-rendering:geometricPrecision;image-rendering:optimizeQuality;" viewBox="0 0 6.82666 8.533325000000001" x="0px" y="0px" fill-rule="evenodd" clip-rule="evenodd"><defs><style type="text/css">
   
    .fil1 {fill:none}
    .fil0 {fill:black;fill-rule:nonzero}
   
  </style></defs><g><path class="fil0" d="M5.81358 3.07325c-0.00672835,-0.125949 -0.0707953,-0.246756 -0.187126,-0.357417 -0.125732,-0.11961 -0.310669,-0.226531 -0.549157,-0.315193 -0.222189,-0.0825669 -0.480657,-0.146685 -0.761835,-0.19024 -0.281122,-0.0435394 -0.586091,-0.0663701 -0.901331,-0.0663701 -0.315256,0 -0.62026,0.0228307 -0.901413,0.066378 -0.281177,0.0435512 -0.539634,0.107669 -0.76176,0.190232 -0.744654,0.27687 -0.742701,0.522039 -0.737996,1.11303 0.000566929,0.0715236 0.00116535,0.146453 0.00116535,0.165827 0,0.119811 0.0439449,0.244461 0.124665,0.363421 0.0837598,0.123437 0.206783,0.240531 0.361634,0.340378 0.138346,0.0891811 0.30789,0.167677 0.499843,0.221913 0.171291,0.0484016 0.360587,0.0774252 0.561709,0.0774252 0.145319,0 0.296661,-0.0152402 0.45161,-0.0493701 0.144378,-0.0318071 0.29165,-0.0798504 0.439811,-0.147039 0.289488,-0.131299 0.566311,-0.209177 0.823811,-0.259122 0.25398,-0.0492638 0.490028,-0.0711142 0.700366,-0.090563l-3.93701e-006 -2.75591e-005 0.00015748 -1.5748e-005 -2.3622e-005 -0.000271654 0.000507874 -3.93701e-005 0 -7.87402e-006c0.00238976,-0.000228346 0.00476378,-0.000338583 0.00711811,-0.000354331 0.236402,-0.0218701 0.423476,-0.0395551 0.564268,-0.0921496 0.0965236,-0.0360787 0.159142,-0.086252 0.198776,-0.141169 0.0513583,-0.0711693 0.065752,-0.153327 0.065752,-0.223008l0 -0.593886c-0.000503937,-0.00416142 -0.000685039,-0.00829528 -0.000547244,-0.0123622zm-0.077126 -0.473039c0.145236,0.138161 0.226012,0.293555 0.236134,0.460039 0.00100394,0.00506693 0.00153937,0.0103031 0.00153937,0.0156654l0 0.603583c0,0.0964606 -0.0210945,0.211815 -0.096374,0.316134 -0.0566378,0.0784764 -0.142972,0.148992 -0.272531,0.197421 -0.160378,0.0599094 -0.356957,0.0785236 -0.60522,0.101492 -0.00218898,0.000393701 -0.00440945,0.000704724 -0.00666142,0.000917323l0 -7.87402e-006 -0.000901575 9.44882e-005 -0.00736614 -0.0796614 0.00718898 0.079374c-0.205047,0.0189567 -0.435177,0.040252 -0.685051,0.0887165 -0.246476,0.0478071 -0.511358,0.122311 -0.788189,0.24787 -0.159232,0.0722087 -0.316925,0.123717 -0.471055,0.157669 -0.166713,0.0367244 -0.329579,0.0531181 -0.485988,0.0531181 -0.215799,0 -0.419709,-0.0313661 -0.604835,-0.0836772 -0.208087,-0.0587953 -0.392299,-0.144161 -0.542969,-0.241283 -0.172728,-0.11137 -0.311323,-0.244 -0.407256,-0.385378 -0.0989331,-0.145795 -0.152791,-0.301031 -0.152791,-0.452799 0,-0.0961772 -0.000279528,-0.131232 -0.000543307,-0.164575 -0.00533071,-0.669957 -0.00754724,-0.947882 0.841752,-1.26366 0.232228,-0.0863189 0.501276,-0.153173 0.793004,-0.198358 0.291724,-0.0451811 0.605024,-0.068874 0.925791,-0.068874 0.320752,0 0.634016,0.023689 0.925709,0.0688661 0.291732,0.045189 0.560783,0.112043 0.793079,0.198366 0.259173,0.0963504 0.462472,0.214756 0.603535,0.348949zm-3.91946 -0.0214803c0.214087,-0.0796063 0.46289,-0.141091 0.733331,-0.182461 0.269878,-0.0412835 0.562165,-0.0629134 0.863803,-0.0629134 0.301614,0 0.59387,0.0216339 0.86372,0.0629134 0.270417,0.0413661 0.519213,0.10285 0.733323,0.182461 0.181319,0.0673701 0.329079,0.146039 0.432122,0.227205 0.11678,0.0919843 0.181484,0.191878 0.181484,0.289709 0,0.0579449 -3.93701e-006,0.0996535 -0.137311,0.143299 -0.120606,0.0383071 -0.307378,0.0530472 -0.523772,0.070122l-0.00205906 0.000161417c-0.207512,0.0162795 -0.453402,0.0355945 -0.720394,0.0798071 -0.267193,0.0442441 -0.558764,0.113594 -0.861157,0.23013 -0.136102,0.0524252 -0.271831,0.0901378 -0.405209,0.115047 -0.143276,0.0267638 -0.283358,0.0389803 -0.417953,0.0389803 -0.20726,0 -0.403795,-0.028811 -0.580449,-0.0780197 -0.192339,-0.0535748 -0.360874,-0.131449 -0.494031,-0.222823 -0.0883465,-0.0606732 -0.151709,-0.120862 -0.194925,-0.175909 -0.0596496,-0.0759724 -0.0840669,-0.14689 -0.0840669,-0.200795l0.000311024 0c-5.11811e-005,-0.0979685 0.0645236,-0.197846 0.181091,-0.289673 0.103043,-0.0811732 0.250823,-0.159854 0.432142,-0.22724zm0.757079 -0.0243346c-0.261138,0.0399488 -0.499165,0.0984921 -0.701457,0.173713 -0.164953,0.0613031 -0.297925,0.131724 -0.389016,0.203484 -0.0775276,0.0610748 -0.120484,0.117969 -0.120461,0.164051l0.000311024 0c0,0.0222913 0.0144331,0.0571417 0.049689,0.102047 0.034311,0.0437047 0.0859094,0.092378 0.159303,0.142783 0.119646,0.0821063 0.271941,0.152315 0.446535,0.200949 0.162496,0.0452638 0.344528,0.0717677 0.537945,0.0717677 0.126465,0 0.256795,-0.0112362 0.388575,-0.0358543 0.124571,-0.0232677 0.250913,-0.0583228 0.377083,-0.106921 0.314406,-0.121161 0.616575,-0.193106 0.893039,-0.238886 0.276673,-0.045815 0.524433,-0.0652795 0.733512,-0.0816811l0.00205906 -0.000161417c0.207823,-0.0164016 0.387205,-0.0305591 0.48815,-0.0626181 0.0254331,-0.00808268 0.025437,0.0182598 0.025437,0.0085748 0,-0.046248 -0.0428701,-0.10315 -0.120232,-0.164087 -0.0910866,-0.071752 -0.224039,-0.142157 -0.388996,-0.203449 -0.202311,-0.0752205 -0.440331,-0.133768 -0.701449,-0.173713 -0.261815,-0.0400512 -0.54602,-0.0610394 -0.839972,-0.0610394 -0.293972,0 -0.578217,0.0209882 -0.840055,0.0610394zm-1.25326 0.967961c0.0645315,0.0480945 0.116157,0.0876378 0.162783,0.123346 0.345169,0.264358 0.411539,0.315189 1.07854,0.315189 0.371945,0 0.760772,-0.104004 1.1718,-0.213937 0.39063,-0.104484 0.800886,-0.21422 1.2425,-0.248909 0.114803,-0.0090315 0.218193,-0.0171772 0.309886,-0.0281181 0.0893425,-0.0106575 0.168039,-0.0240079 0.236461,-0.0435787l-1.9685e-005 -7.08661e-005c0.0424764,-0.0121535 0.0867717,0.0124252 0.0989252,0.0549016 0.00227953,0.00796457 0.00326772,0.0159921 0.00308661,0.0238622l0 0.174539c0,0.0424685 -0.00432677,0.0756654 -0.0293937,0.11102 -0.021815,0.0307835 -0.0554567,0.0539331 -0.112496,0.0752913 -0.0605276,0.0226457 -0.13878,0.0382717 -0.229661,0.0507205 -0.085437,0.0117008 -0.185606,0.0209567 -0.293094,0.030874 -0.397079,0.0367598 -0.792787,0.15326 -1.17786,0.26663 -0.77389,0.227839 -1.50623,0.443445 -2.17882,0.00992913 -0.112886,-0.0727205 -0.210335,-0.178835 -0.281941,-0.287504 -0.0835945,-0.126858 -0.133362,-0.260945 -0.133362,-0.353972 0,-0.0441811 0.0358189,-0.08 0.08,-0.08 0.0201693,0 0.0385945,0.00746457 0.0526693,0.0197874zm1.24132 0.598535c-0.69528,0 -0.788047,-0.052315 -1.13631,-0.318394 0.00893701,0.0154173 0.0185512,0.0309724 0.028811,0.0465394 0.0603268,0.0915512 0.141693,0.18048 0.235067,0.24063 0.611476,0.394122 1.30972,0.188551 2.04757,-0.0286772 0.391882,-0.115374 0.794591,-0.233937 1.20848,-0.272252 0.103783,-0.0095748 0.200512,-0.0185157 0.28622,-0.030252 0.0802677,-0.0109961 0.147465,-0.0240787 0.195291,-0.0419724 0.0241732,-0.00905118 0.0353937,-0.0145748 0.0381181,-0.0184173 0.000511811,-0.000724409 -0.000606299,-0.00668898 -0.000606299,-0.0185157l0 -0.075311c-0.0497953,0.00976772 -0.102945,0.0176339 -0.159705,0.0244055 -0.0950945,0.0113465 -0.199835,0.0196024 -0.31613,0.028748 -0.427382,0.0335709 -0.830205,0.141319 -1.21376,0.243909 -0.421823,0.112823 -0.820866,0.219559 -1.21305,0.219559z"/><path class="fil0" d="M2.86899 2.98028c0,0.0779843 -0.0693976,0.140118 -0.181579,0.17752 -0.086315,0.0287795 -0.203346,0.0465787 -0.330602,0.0465787 -0.127299,0 -0.244346,-0.0177992 -0.330665,-0.0465748 -0.112201,-0.0374016 -0.181594,-0.0995315 -0.181594,-0.177524 0,-0.0779449 0.0694252,-0.140087 0.181657,-0.1775 0.0863189,-0.0287717 0.203339,-0.0465827 0.330602,-0.0465827 0.127228,0 0.244232,0.017811 0.330539,0.0465866 0.112217,0.0374134 0.181642,0.0995512 0.181642,0.177496zm-0.231579 0.0262677c0.0442205,-0.0147402 0.0715787,-0.0246654 0.0715787,-0.0262677 0,-0.00156693 -0.0273858,-0.0114882 -0.0716417,-0.0262441 -0.0701024,-0.0233701 -0.169157,-0.0378386 -0.280539,-0.0378386 -0.111429,0 -0.210496,0.0144685 -0.280602,0.0378346 -0.0442677,0.0147559 -0.0716575,0.0246772 -0.0716575,0.026248 0,0.00160236 0.0273622,0.0115276 0.0715945,0.0262717 0.0701063,0.0233701 0.169205,0.0378268 0.280665,0.0378268 0.111417,0 0.2105,-0.0144567 0.280602,-0.0378307z"/></g><rect class="fil1" width="6.82666" height="6.82666"/><text x="0" y="21.82666" fill="#000000" font-size="5px" font-weight="bold" font-family="'Helvetica Neue', Helvetica, Arial-Unicode, Arial, Sans-serif">Created by IYIKON</text><text x="0" y="26.82666" fill="#000000" font-size="5px" font-weight="bold" font-family="'Helvetica Neue', Helvetica, Arial-Unicode, Arial, Sans-serif">from the Noun Project</text></svg>