<svg xmlns="http://www.w3.org/2000/svg" xmlns:xlink="http://www.w3.org/1999/xlink" xml:space="preserve" style="shape-rendering:geometricPrecision;text-rendering:geometricPrecision;image-rendering:optimizeQuality;" viewBox="0 0 6.82666 8.533325000000001" x="0px" y="0px" fill-rule="evenodd" clip-rule="evenodd"><defs><style type="text/css">
   
    .fil1 {fill:none}
    .fil2 {fill:black}
    .fil0 {fill:black;fill-rule:nonzero}
   
  </style></defs><g><path class="fil0" d="M3.81506 2.04915c0.0283031,-0.0338268 0.0238268,-0.0842008 -0.01,-0.112504 -0.0338268,-0.0283031 -0.0842008,-0.0238268 -0.112504,0.01l-2.82048 3.37211 0.061252 0.051252 -0.0613661 -0.0513268c-0.0283465,0.0338898 -0.0238504,0.0843465 0.0100394,0.112693 0.0191181,0.0159921 0.0435118,0.0215315 0.0662283,0.0172362l4.44746 -0.676917c0.0436614,-0.00655512 0.0737441,-0.0472756 0.067189,-0.090937 -0.00655512,-0.0436614 -0.0472756,-0.0737441 -0.090937,-0.067189l-4.2418 0.645614 2.68492 -3.21003z"/><path class="fil0" d="M5.52865 2.79258c-0.0214016,-0.0384843 -0.0699567,-0.0523386 -0.108441,-0.030937 -0.0384843,0.0214016 -0.0523386,0.0699567 -0.030937,0.108441 0.139091,0.249224 0.255819,0.535343 0.33139,0.861744 0.0757441,0.327138 0.110142,0.694827 0.0843228,1.10651 -0.00275984,0.0440079 0.0306811,0.0819291 0.074689,0.084689 0.0440079,0.00275984 0.0819291,-0.0306811 0.084689,-0.074689 0.0268386,-0.427992 -0.00907087,-0.810909 -0.0880787,-1.15213 -0.0791732,-0.341969 -0.201638,-0.642028 -0.347634,-0.903626z"/><path class="fil0" d="M5.35108 4.77069c-0.0062126,0.0436614 0.0241496,0.0841024 0.067811,0.090315 0.0436614,0.0062126 0.0841024,-0.0241496 0.090315,-0.067811 0.000350394,-0.00244094 0.12863,-0.842185 -0.382634,-1.76797 -0.0212244,-0.0386575 -0.0697795,-0.0527874 -0.108437,-0.031563 -0.0386575,0.0212244 -0.0527874,0.0697795 -0.031563,0.108437 0.485236,0.878654 0.364839,1.66631 0.364508,1.66859z"/><path class="fil0" d="M5.94967 4.88959c0.0255433,-0.0358976 0.0171496,-0.0857087 -0.018748,-0.111252 -0.0358976,-0.0255433 -0.0857087,-0.0171496 -0.111252,0.018748 -0.000555118,0.000779528 -0.193508,0.27587 -0.314843,-0.0432795 -0.0155315,-0.041248 -0.0615669,-0.0620945 -0.102815,-0.046563 -0.041248,0.0155315 -0.0620945,0.0615669 -0.046563,0.102815 0.228465,0.600937 0.593169,0.0810079 0.59422,0.0795315z"/><path class="fil0" d="M5.39052 2.87227c0.0226063,0.0377953 0.0715787,0.0501063 0.109374,0.0275 0.0377953,-0.0226063 0.0501063,-0.0715787 0.0275,-0.109374 -0.153555,-0.257248 -0.352181,-0.513331 -0.608732,-0.75287 -0.255969,-0.238996 -0.569697,-0.461579 -0.953988,-0.652437 -0.0395197,-0.0195 -0.087374,-0.00326772 -0.106874,0.036252 -0.0195,0.0395197 -0.00326772,0.087374 0.036252,0.106874 0.36922,0.183374 0.670378,0.39698 0.915862,0.626185 0.244902,0.228661 0.434327,0.472811 0.580606,0.71787z"/><path class="fil0" d="M3.78465 1.80693c-0.0409016,-0.0162205 -0.0872165,0.0037874 -0.103437,0.044689 -0.0162205,0.0409016 0.0037874,0.0872165 0.044689,0.103437 0.00214567,0.000854331 0.743827,0.290157 1.26223,1.14985 0.0227795,0.0377953 0.0718937,0.0499646 0.109689,0.027185 0.0377953,-0.0227795 0.0499646,-0.0718937 0.027185,-0.109689 -0.546039,-0.905524 -1.33806,-1.21456 -1.34035,-1.21547z"/><path class="fil0" d="M3.93687 1.53603c0.0438346,-0.00414173 0.0760157,-0.0430394 0.071874,-0.086874 -0.00414173,-0.0438346 -0.0430394,-0.0760157 -0.086874,-0.071874 -0.00180315,0.000173228 -0.634366,0.0560512 -0.228461,0.554024 0.0277835,0.0341693 0.0780157,0.0393465 0.112185,0.011563 0.0341693,-0.0277835 0.0393465,-0.0780157 0.011563,-0.112185 -0.216012,-0.265008 0.11876,-0.294563 0.119713,-0.294654z"/><path class="fil0" d="M3.98265 2.85452c0.0504291,0.0873504 0.0607323,0.186705 0.0366142,0.276713 -0.0241693,0.0902047 -0.0827717,0.171201 -0.170063,0.221602l-0.04 -0.069063 0.00125591 0.00217323 0.0387402 0.0668898 -9.05512e-005 5.11811e-005 9.44882e-005 0.000165354c-0.00185827,0.0010748 -0.00374016,0.00205906 -0.00564567,0.0029685 -0.0860354,0.0477008 -0.183173,0.0570669 -0.271378,0.0334331 -0.0902047,-0.0241693 -0.171201,-0.0827677 -0.221602,-0.170059l0.069063 -0.04 -0.0692795 0.0400039c-0.00142913,-0.00247244 -0.00270472,-0.00499606 -0.00384252,-0.00754724 -0.0469055,-0.0855827 -0.0560079,-0.181957 -0.0325551,-0.269488 0.0241142,-0.0899921 0.0827362,-0.170913 0.170142,-0.221461l-7.87402e-005 -0.000137795 9.44882e-005 -5.51181e-005 -9.44882e-005 -0.000165354c0.00185827,-0.0010748 0.00374409,-0.00205906 0.00564961,-0.0029685 0.0860354,-0.0477008 0.183173,-0.057063 0.271378,-0.0334291 0.0900709,0.0241339 0.171063,0.0828386 0.221598,0.170374zm-0.117764 0.235461c0.0136575,-0.0509803 0.00794882,-0.107039 -0.0203622,-0.156083 -0.0282047,-0.0488583 -0.073811,-0.0817323 -0.124724,-0.095374 -0.0494843,-0.0132559 -0.103799,-0.00819685 -0.151819,0.0181417 -0.0012874,0.000846457 -0.00260236,0.00166535 -0.00395669,0.00244488l-0.04 -0.0692835 0.039689 0.069063c-0.0488583,0.0282047 -0.0817323,0.073811 -0.095374,0.124724 -0.0131417,0.0490472 -0.00835433,0.102803 0.0172441,0.150484 0.00208268,0.00302362 0.00395669,0.00619685 0.00561417,0.0095 0.0284921,0.0467795 0.0729134,0.0782638 0.122232,0.0914764 0.0494567,0.013252 0.10374,0.00820079 0.151736,-0.0180984 0.00264173,-0.00174409 0.0053937,-0.00333465 0.00824016,-0.00476378 0.0467795,-0.0284882 0.0782638,-0.0729134 0.0914803,-0.122232zm-0.379291 0.0441339c0.00116929,0.00170079 0.00227559,0.00346063 0.00332283,0.00527559"/><line class="fil1" x1="4.64636" y1="4.45914" x2="4.28565" y2="4.36249"/><path class="fil0" d="M4.62573 4.53633c0.0426299,0.0113898 0.0864252,-0.0139331 0.097815,-0.056563 0.0113898,-0.0426299 -0.0139331,-0.0864252 -0.056563,-0.097815l-0.360709 -0.0966535c-0.0426299,-0.0113898 -0.0864252,0.0139331 -0.097815,0.056563 -0.0113898,0.0426299 0.0139331,0.0864252 0.056563,0.097815l0.360709 0.0966535z"/><circle class="fil2" transform="matrix(0.506991 0.878134 -0.878133 0.506991 4.33467 3.60241)" r="0.135417"/><circle class="fil2" transform="matrix(0.506991 0.878134 -0.878133 0.506991 2.60376 4.72368)" r="0.208335"/><ellipse class="fil2" transform="matrix(0.506991 0.878134 -0.878133 0.506991 1.93367 4.952)" rx="0.104165" ry="0.184894"/><ellipse class="fil2" transform="matrix(0.506991 0.878134 -0.878133 0.506991 3.42208 4.75736)" rx="0.0885394" ry="0.161457"/><path class="fil0" d="M3.83701 3.81669c0.0351299,0.0608543 0.0423189,0.13002 0.0255472,0.192634 -0.0168307,0.062815 -0.0576457,0.119217 -0.118437,0.154319 -0.0609213,0.0351732 -0.130205,0.0423583 -0.192949,0.0255472 -0.0626339,-0.0167835 -0.118996,-0.0576496 -0.15424,-0.11861l-0.000299213 0.000173228c-0.00151575,-0.00262205 -0.00285827,-0.00529921 -0.00404331,-0.00800787 -0.0314213,-0.0589409 -0.0373583,-0.124941 -0.0212835,-0.184937 0.0168307,-0.062811 0.0576417,-0.119217 0.118433,-0.154319l0.04 0.069063 -0.00129528 -0.00224409 -0.0387008 -0.0668189 8.66142e-005 -5.11811e-005 -9.44882e-005 -0.000165354c0.00194882,-0.00112598 0.00392913,-0.00215748 0.00592913,-0.00309843 0.0594685,-0.0323031 0.126307,-0.0385 0.187028,-0.0222323 0.0626811,0.0167953 0.119083,0.0577126 0.154319,0.118748zm-0.128831 0.151382c0.0063189,-0.0235906 0.00371654,-0.0494606 -0.00929528,-0.0720039 -0.0129055,-0.0223583 -0.0339213,-0.0374449 -0.0574449,-0.043748 -0.0222362,-0.00595669 -0.0465433,-0.0039252 -0.0681614,0.00735827 -0.00232283,0.00151181 -0.00472835,0.00290157 -0.0072126,0.00416929 -0.0205748,0.0131417 -0.0344606,0.0331102 -0.0403819,0.0552126 -0.0058622,0.0218858 -0.00404331,0.0457362 0.00664567,0.0670748 0.00205512,0.00305512 0.00390157,0.00625984 0.00552756,0.00959449 0.0130354,0.0197953 0.0327165,0.0332283 0.0545669,0.0390827 0.0234567,0.00628346 0.0492165,0.00368504 0.0716969,-0.00929528 0.0226024,-0.0130512 0.0377913,-0.0340512 0.0440591,-0.0574449z"/><circle class="fil2" transform="matrix(0.506991 0.878134 -0.878133 0.506991 4.72659 3.92667)" r="0.135417"/><circle class="fil2" transform="matrix(0.506991 0.878134 -0.878133 0.506991 3.82771 4.52334)" r="0.135417"/><circle class="fil2" transform="matrix(0.506991 0.878134 -0.878133 0.506991 2.39044 4.18749)" r="0.135417"/><path class="fil0" d="M3.3152 4.24996c0.0351772,0.0609252 0.0423583,0.130205 0.0255472,0.192949 -0.0167835,0.0626339 -0.0576496,0.118996 -0.11861,0.15424l0.000173228 0.000299213c-0.00262205,0.00151575 -0.00529921,0.00285827 -0.00800787,0.00404331 -0.0589409,0.0314213 -0.124941,0.0373583 -0.184937,0.0212835 -0.062815,-0.0168307 -0.119217,-0.0576417 -0.154319,-0.118433l0.069063 -0.04 -0.00224409 0.00129528 -0.0668189 0.0387008 -5.11811e-005 -8.66142e-005 -0.000165354 9.44882e-005c-0.00112598,-0.00194882 -0.00215748,-0.00392913 -0.00309843,-0.00592913 -0.0322992,-0.0594646 -0.0385,-0.126307 -0.0222323,-0.187028 0.0167953,-0.0626811 0.0577126,-0.119083 0.118748,-0.154319 0.0608543,-0.0351299 0.130016,-0.0423189 0.192634,-0.0255472 0.062815,0.0168307 0.11922,0.0576496 0.154319,0.118437zm-0.128831 0.151697c0.00628346,-0.0234567 0.00368504,-0.0492165 -0.00929528,-0.0716969 -0.0130512,-0.0226024 -0.0340512,-0.0377913 -0.0574449,-0.0440591 -0.0235866,-0.0063189 -0.0494606,-0.00371654 -0.0720039,0.00929528 -0.0223583,0.0129055 -0.0374449,0.0339173 -0.043748,0.0574449 -0.00595669,0.0222362 -0.0039252,0.0465433 0.00735827,0.0681614 0.00151181,0.00232283 0.00290157,0.00472835 0.00416929,0.0072126 0.0131417,0.0205748 0.0331142,0.0344606 0.0552126,0.0403819 0.0218858,0.0058622 0.0457362,0.00404331 0.0670748,-0.00664567 0.00305512,-0.00205512 0.00625984,-0.00390157 0.00959449,-0.00552756 0.0197953,-0.0130354 0.0332283,-0.0327205 0.0390827,-0.0545669z"/><ellipse class="fil2" transform="matrix(0.506991 0.878134 -0.878133 0.506991 4.24327 4.03948)" rx="0.104165" ry="0.184894"/><ellipse class="fil2" transform="matrix(0.506991 0.878134 -0.878133 0.506991 4.34218 3.04767)" rx="0.104165" ry="0.184894"/><line class="fil1" x1="3.38692" y1="3.61281" x2="3.02621" y2="3.51616"/><path class="fil0" d="M3.36629 3.69c0.0426299,0.0113898 0.0864252,-0.0139331 0.097815,-0.056563 0.0113898,-0.0426299 -0.0139331,-0.0864252 -0.056563,-0.097815l-0.360705 -0.0966535c-0.0426299,-0.0113898 -0.0864252,0.0139331 -0.097815,0.056563 -0.0113898,0.0426299 0.0139331,0.0864252 0.056563,0.097815l0.360705 0.0966535z"/><circle class="fil2" transform="matrix(0.506991 0.878134 -0.878133 0.506991 2.95761 3.92475)" r="0.135417"/><ellipse class="fil2" transform="matrix(0.506991 0.878134 -0.878133 0.506991 2.06995 4.54086)" rx="0.104165" ry="0.184894"/></g><rect class="fil1" width="6.82666" height="6.82666"/><text x="0" y="21.82666" fill="#000000" font-size="5px" font-weight="bold" font-family="'Helvetica Neue', Helvetica, Arial-Unicode, Arial, Sans-serif">Created by IYIKON</text><text x="0" y="26.82666" fill="#000000" font-size="5px" font-weight="bold" font-family="'Helvetica Neue', Helvetica, Arial-Unicode, Arial, Sans-serif">from the Noun Project</text></svg>