<svg xmlns="http://www.w3.org/2000/svg" xmlns:xlink="http://www.w3.org/1999/xlink" xml:space="preserve" style="shape-rendering:geometricPrecision;text-rendering:geometricPrecision;image-rendering:optimizeQuality;" viewBox="0 0 6.82666 8.533325000000001" x="0px" y="0px" fill-rule="evenodd" clip-rule="evenodd"><defs><style type="text/css">
   
    .fil1 {fill:none}
    .fil0 {fill:black;fill-rule:nonzero}
   
  </style></defs><g><path class="fil0" d="M3.16273 3.38838c-0.0327913,-0.0295118 -0.0832992,-0.0268543 -0.112811,0.00593701 -0.0295118,0.0327913 -0.0268543,0.0832992 0.00593701,0.112811l1.30527 1.17572 -8.26772e-005 9.05512e-005c0.0318465,0.028685 0.0804016,0.0270551 0.110276,-0.00303543l1.302 -1.17277c0.0327913,-0.0295118 0.0354488,-0.0800197 0.00593701,-0.112811 -0.0295118,-0.0327913 -0.0800197,-0.0354488 -0.112811,-0.00593701l-1.25185 1.12761 -1.25186 -1.12761z"/><path class="fil0" d="M3.10929 3.36775c-0.0441811,0 -0.08,0.0358189 -0.08,0.08 0,0.0441811 0.0358189,0.08 0.08,0.08l2.61059 0c0.0441811,0 0.08,-0.0358189 0.08,-0.08 0,-0.0441811 -0.0358189,-0.08 -0.08,-0.08l-2.61059 0z"/><path class="fil0" d="M4.33459 5.89333c0,0.0441811 0.0358189,0.08 0.08,0.08 0.0441811,0 0.08,-0.0358189 0.08,-0.08l0 -1.26983c0,-0.0441811 -0.0358189,-0.08 -0.08,-0.08 -0.0441811,0 -0.08,0.0358189 -0.08,0.08l0 1.26983z"/><path class="fil0" d="M3.82537 5.81332c-0.0441811,0 -0.08,0.0358189 -0.08,0.08 0,0.0441811 0.0358189,0.08 0.08,0.08l1.17842 0c0.0441811,0 0.08,-0.0358189 0.08,-0.08 0,-0.0441811 -0.0358189,-0.08 -0.08,-0.08l-1.17842 0z"/><path class="fil0" d="M2.27312 2.48321c0.125319,0.0687598 0.231583,0.168598 0.308276,0.289016 0.0833583,0.130878 0.131756,0.285587 0.131756,0.450657l0 2.55083c0,0.0523346 -0.0213543,0.0998622 -0.055752,0.134256 -0.0343937,0.0344016 -0.0819213,0.055752 -0.134256,0.055752l-1.30635 0c-0.0523386,0 -0.0998583,-0.0213543 -0.134252,-0.055752 -0.0343976,-0.0343937 -0.055752,-0.0819213 -0.055752,-0.134256l0 -2.55083c0,-0.159189 0.0449055,-0.308665 0.122705,-0.43639 0.071622,-0.117583 0.171394,-0.216524 0.289827,-0.28737l0 -1.56579c0,-0.0441811 0.0358189,-0.08 0.08,-0.08l0.673803 0c0.0441811,0 0.08,0.0358189 0.08,0.08l0 1.54988zm0.173898 0.374638c-0.0687047,-0.10787 -0.166945,-0.1955 -0.283181,-0.251386 -0.0297008,-0.011689 -0.0507165,-0.040622 -0.0507165,-0.0744685l0 -1.51866 -0.513803 0 0 1.53099c0.000452756,0.0292953 -0.0152598,0.0577598 -0.0430079,0.0722323l-0.000149606 -0.000291339c-0.111374,0.0580906 -0.20511,0.146138 -0.270417,0.253354 -0.0627402,0.103004 -0.0989567,0.22398 -0.0989567,0.353264l0 2.55083c0,0.00816535 0.00340157,0.0156575 0.00887795,0.0211299 0.00547244,0.00547638 0.0129606,0.00887795 0.021126,0.00887795l1.30635 0c0.00816535,0 0.0156575,-0.00340157 0.0211299,-0.00887795 0.00547638,-0.00547244 0.00887795,-0.0129646 0.00887795,-0.0211299l0 -2.55083c0,-0.134335 -0.0389882,-0.25961 -0.106134,-0.365035z"/><path class="fil0" d="M1.51932 1.29335c-0.0441811,0 -0.08,0.0358189 -0.08,0.08 0,0.0441811 0.0358189,0.08 0.08,0.08l0.673803 0c0.0441811,0 0.08,-0.0358189 0.08,-0.08 0,-0.0441811 -0.0358189,-0.08 -0.08,-0.08l-0.673803 0z"/><path class="fil0" d="M1.10679 3.94085c-0.0441811,0 -0.08,0.0358189 -0.08,0.08 0,0.0441811 0.0358189,0.08 0.08,0.08l1.52637 0c0.0441811,0 0.08,-0.0358189 0.08,-0.08 0,-0.0441811 -0.0358189,-0.08 -0.08,-0.08l-1.52637 0z"/><path class="fil0" d="M1.10679 4.50465c-0.0441811,0 -0.08,0.0358189 -0.08,0.08 0,0.0441811 0.0358189,0.08 0.08,0.08l1.52637 0c0.0441811,0 0.08,-0.0358189 0.08,-0.08 0,-0.0441811 -0.0358189,-0.08 -0.08,-0.08l-1.52637 0z"/><path class="fil0" d="M1.10679 5.06844c-0.0441811,0 -0.08,0.0358189 -0.08,0.08 0,0.0441811 0.0358189,0.08 0.08,0.08l1.52637 0c0.0441811,0 0.08,-0.0358189 0.08,-0.08 0,-0.0441811 -0.0358189,-0.08 -0.08,-0.08l-1.52637 0z"/></g><rect class="fil1" width="6.82666" height="6.82666"/><text x="0" y="21.82666" fill="#000000" font-size="5px" font-weight="bold" font-family="'Helvetica Neue', Helvetica, Arial-Unicode, Arial, Sans-serif">Created by IYIKON</text><text x="0" y="26.82666" fill="#000000" font-size="5px" font-weight="bold" font-family="'Helvetica Neue', Helvetica, Arial-Unicode, Arial, Sans-serif">from the Noun Project</text></svg>