<svg xmlns="http://www.w3.org/2000/svg" xmlns:xlink="http://www.w3.org/1999/xlink" xml:space="preserve" style="shape-rendering:geometricPrecision;text-rendering:geometricPrecision;image-rendering:optimizeQuality;" viewBox="0 0 6.82666 8.533325000000001" x="0px" y="0px" fill-rule="evenodd" clip-rule="evenodd"><defs><style type="text/css">
   
    .fil1 {fill:none}
    .fil0 {fill:black;fill-rule:nonzero}
   
  </style></defs><g><path class="fil0" d="M2.53148 2.64806c0,-0.0466929 -0.0358189,-0.0845472 -0.08,-0.0845472 -0.0441811,0 -0.08,0.0378543 -0.08,0.0845472l0 0.750398c0,0.0466929 0.0358189,0.0845472 0.08,0.0845472 0.0441811,0 0.08,-0.0378543 0.08,-0.0845472l0 -0.750398z"/><path class="fil0" d="M1.91339 3.63498l1.07619 0c0.0441811,0 0.08,0.0358189 0.08,0.08l0 0.945709c0,0.0441811 -0.0358189,0.08 -0.08,0.08l-1.07619 0c-0.0441811,0 -0.08,-0.0358189 -0.08,-0.08l0 -0.945709c0,-0.0441811 0.0358189,-0.08 0.08,-0.08zm0.996189 0.16l-0.916189 0 0 0.785709 0.916189 0 0 -0.785709z"/><path class="fil0" d="M1.91339 4.32203c-0.0441811,0 -0.08,0.0358189 -0.08,0.08 0,0.0441811 0.0358189,0.08 0.08,0.08l1.07619 0c0.0441811,0 0.08,-0.0358189 0.08,-0.08 0,-0.0441811 -0.0358189,-0.08 -0.08,-0.08l-1.07619 0z"/><path class="fil0" d="M2.91941 3.75456c0.0212244,0.0386575 0.0697795,0.0527874 0.108437,0.031563 0.0386575,-0.0212244 0.0527874,-0.0697795 0.031563,-0.108437l-0.174591 -0.317547 -0.07 0.038437 0.0701024 -0.0385433c-0.0147441,-0.026815 -0.0426181,-0.0418346 -0.0712244,-0.0414567l-0.362213 0 0 0.16 -0.000326772 -0.16 0.000326772 0c0.105228,0 0.105228,0.16 0,0.16l0.316185 0 0.15174 0.275984zm-0.467925 -0.435984c-0.105228,0 -0.105555,0.16 -0.000326772,0.16l-0.315858 0 -0.15174 0.275984c-0.0212244,0.0386575 -0.0697795,0.0527874 -0.108437,0.031563 -0.0386575,-0.0212244 -0.0527874,-0.0697795 -0.031563,-0.108437l0.174591 -0.317547 0.07 0.038437 -0.0701024 -0.0385433c0.0147441,-0.026815 0.0426181,-0.0418346 0.0712244,-0.0414567l0.362213 0z"/><path class="fil0" d="M4.4952 3.18086c-0.0417638,0.0143228 -0.0640118,0.0597992 -0.049689,0.101563 0.0143228,0.0417638 0.0597992,0.0640118 0.101563,0.049689 0.258075,-0.088685 0.437504,-0.0664528 0.54678,0.0225945 0.0619409,0.0504724 0.103283,0.124016 0.125016,0.211839 0.023126,0.0934528 0.0240984,0.20265 0.00417717,0.318146 -0.0613307,0.355457 -0.317878,0.759173 -0.735035,0.950531 -0.0400394,0.0182913 -0.0576654,0.0655866 -0.039374,0.105626 0.0182913,0.0400394 0.0655866,0.0576654 0.105626,0.039374 0.468929,-0.21511 0.757331,-0.669 0.826287,-1.06866 0.0235512,-0.136535 0.0218189,-0.267984 -0.0066811,-0.383146 -0.0298937,-0.120807 -0.089126,-0.223906 -0.179394,-0.297461 -0.15076,-0.12285 -0.382161,-0.159071 -0.699276,-0.0500984z"/><path class="fil0" d="M1.50966 2.56167l3.01148 0c0.0441811,0 0.08,0.0358189 0.08,0.08l0 2.51265c0,0.225311 -0.0921181,0.430087 -0.240524,0.578492 -0.148402,0.148402 -0.353177,0.24052 -0.578488,0.24052l-1.53346 0c-0.225307,0 -0.430083,-0.0921181 -0.578484,-0.240524 -0.148406,-0.148402 -0.240524,-0.353177 -0.240524,-0.578488l0 -2.51265c0,-0.0441811 0.0358189,-0.08 0.08,-0.08zm2.93148 0.16l-2.85148 0 0 2.43265c0,0.181142 0.0741654,0.345882 0.19365,0.465362 0.11948,0.119484 0.28422,0.19365 0.465358,0.19365l1.53346 0c0.181142,0 0.345882,-0.0741654 0.465362,-0.193646 0.119484,-0.119484 0.19365,-0.284224 0.19365,-0.465366l0 -2.43265z"/><path class="fil0" d="M2.14329 0.856457c-0.0424528,-0.0120787 -0.0866693,0.0125472 -0.098748,0.055 -0.0120787,0.0424528 0.0125472,0.0866693 0.055,0.098748 0.0013622,0.000389764 0.480795,0.131571 -0.028752,0.551024 -0.760425,0.625976 0.328126,0.828858 0.331232,0.829461 0.0433189,0.00828346 0.0851535,-0.0201181 0.093437,-0.063437 0.00828346,-0.0433189 -0.0201181,-0.0851535 -0.063437,-0.093437 -0.00214567,-0.000417323 -0.755862,-0.141256 -0.25998,-0.549461 0.746772,-0.614732 -0.0265512,-0.827268 -0.028752,-0.827898z"/><path class="fil0" d="M2.90866 0.90137c-0.0424528,-0.0120787 -0.0866693,0.0125472 -0.098748,0.055 -0.0120787,0.0424528 0.0125472,0.0866693 0.055,0.098748 0.0013622,0.000389764 0.480791,0.131571 -0.028752,0.551024 -0.760429,0.625976 0.328126,0.828858 0.331232,0.829461 0.0433189,0.00828346 0.0851535,-0.0201181 0.093437,-0.063437 0.00828346,-0.0433189 -0.0201181,-0.0851535 -0.063437,-0.093437 -0.00214567,-0.000417323 -0.755866,-0.141256 -0.25998,-0.549461 0.746764,-0.614728 -0.0265512,-0.827268 -0.028752,-0.827898z"/><path class="fil0" d="M3.67403 0.946283c-0.0424528,-0.0120787 -0.0866693,0.0125472 -0.098748,0.055 -0.0120787,0.0424528 0.0125472,0.0866693 0.055,0.098748 0.0013622,0.000389764 0.480787,0.131575 -0.028752,0.551024 -0.760429,0.625976 0.328126,0.828858 0.331232,0.829461 0.0433189,0.00828346 0.0851535,-0.0201181 0.093437,-0.063437 0.00828346,-0.0433189 -0.0201181,-0.0851535 -0.063437,-0.093437 -0.00214567,-0.000417323 -0.755866,-0.141256 -0.25998,-0.549461 0.746764,-0.614728 -0.0265512,-0.827268 -0.028752,-0.827898z"/></g><rect class="fil1" width="6.82666" height="6.82666"/><text x="0" y="21.82666" fill="#000000" font-size="5px" font-weight="bold" font-family="'Helvetica Neue', Helvetica, Arial-Unicode, Arial, Sans-serif">Created by IYIKON</text><text x="0" y="26.82666" fill="#000000" font-size="5px" font-weight="bold" font-family="'Helvetica Neue', Helvetica, Arial-Unicode, Arial, Sans-serif">from the Noun Project</text></svg>